<svg width="16" height="16" viewBox="0 0 16 16" fill="none" xmlns="http://www.w3.org/2000/svg">
<g clip-path="url(#clip0_13683_28927)">
<path d="M7.26667 0.185112C7.74832 0.0636073 8.25261 0.0636073 8.73427 0.185112L13.4319 1.37014C14.8681 1.73246 15.825 3.08884 15.6845 4.56344L15.0753 10.9599C14.9833 11.9262 14.4295 12.7882 13.5889 13.2735L9.50047 15.634C8.57227 16.1699 7.42867 16.1699 6.50047 15.634L2.41208 13.2735C1.57147 12.7882 1.01762 11.9262 0.925589 10.9599L0.316403 4.56344C0.175965 3.08884 1.13281 1.73246 2.56909 1.37014L7.26667 0.185112Z" fill="#00BFA8"/>
<path d="M4 8L6.66667 10.5L12 5.5" stroke="white" stroke-width="2"/>
</g>
<defs>
<clipPath id="clip0_13683_28927">
<rect width="16" height="16" fill="white"/>
</clipPath>
</defs>
</svg>
