<svg width="50" height="50" viewBox="0 0 50 50" fill="none" xmlns="http://www.w3.org/2000/svg">
<rect width="50" height="50" rx="20" fill="#24252D"/>
<path d="M20.3753 23.8698C20.4332 23.8115 20.6492 23.5647 20.8521 23.3598C22.0357 22.0766 25.1262 19.9782 26.7429 19.336C26.9884 19.2335 27.6091 19.0154 27.9418 19C28.2592 19 28.5625 19.0738 28.8516 19.2192C29.2127 19.423 29.5007 19.7446 29.66 20.1236C29.7614 20.3857 29.9207 21.1733 29.9207 21.1876C30.0789 22.0479 30.165 23.4469 30.165 24.9934C30.165 26.465 30.0789 27.8067 29.949 28.6813C29.9349 28.6967 29.7756 29.6738 29.6021 30.0086C29.2847 30.6211 28.664 31 27.9996 31H27.9418C27.5087 30.9857 26.5989 30.6057 26.5989 30.5924C25.0684 29.9502 22.051 27.9532 20.8379 26.6258C20.8379 26.6258 20.4953 26.2844 20.347 26.0718C20.1157 25.7656 20.0001 25.3866 20.0001 25.0077C20.0001 24.5847 20.1299 24.1915 20.3753 23.8698Z" fill="white"/>
</svg>
