<svg width="50" height="50" viewBox="0 0 50 50" fill="none" xmlns="http://www.w3.org/2000/svg">
<rect width="50" height="50" rx="20" fill="#24252D"/>
<path d="M31.6247 26.1302C31.5668 26.1885 31.3508 26.4353 31.1479 26.6402C29.9643 27.9234 26.8738 30.0218 25.2571 30.664C25.0116 30.7665 24.3909 30.9846 24.0582 31C23.7408 31 23.4375 30.9262 23.1484 30.7808C22.7873 30.577 22.4993 30.2554 22.34 29.8764C22.2386 29.6143 22.0793 28.8267 22.0793 28.8124C21.9211 27.9521 21.835 26.5531 21.835 25.0066C21.835 23.535 21.9211 22.1933 22.051 21.3187C22.0651 21.3033 22.2244 20.3262 22.3979 19.9914C22.7153 19.3789 23.336 19 24.0004 19H24.0582C24.4913 19.0143 25.4011 19.3943 25.4011 19.4076C26.9316 20.0498 29.949 22.0468 31.1621 23.3742C31.1621 23.3742 31.5047 23.7156 31.653 23.9282C31.8843 24.2344 31.9999 24.6134 31.9999 24.9923C31.9999 25.4153 31.8701 25.8085 31.6247 26.1302Z" fill="white"/>
</svg>
