<svg width="23" height="23" viewBox="0 0 23 23" fill="none" xmlns="http://www.w3.org/2000/svg">
<path d="M21.0834 11.5382L21.0834 20.1345C21.0834 20.6618 20.654 21.0897 20.1251 21.0897L2.87503 21.0897C2.34602 21.0897 1.91672 20.6617 1.91672 20.1345L1.91672 11.5382C1.91672 11.01 1.48836 10.583 0.958404 10.583C0.428452 10.583 1.09377e-06 11.01 1.04559e-06 11.5382L2.61395e-07 20.1345C1.17279e-07 21.7144 1.28995 23 2.87503 23L20.125 23C21.7101 23 23 21.7144 23 20.1345L23 11.5382C23 11.01 22.5716 10.583 22.0417 10.583C21.5117 10.583 21.0834 11.01 21.0834 11.5382Z" fill="white"/>
<path d="M10.817 0.284569L5.06698 6.09188C4.69514 6.4663 4.69996 7.07185 5.07658 7.44245C5.4532 7.81306 6.05981 7.80924 6.43166 7.43288L10.541 3.28278L10.541 14.4036C10.541 14.9318 10.9693 15.3587 11.4993 15.3587C12.0292 15.3587 12.4576 14.9318 12.4576 14.4036L12.4576 3.28279L16.567 7.43288C16.9388 7.80919 17.5454 7.81207 17.922 7.44245C18.1118 7.25526 18.2076 7.00882 18.2076 6.76238C18.2076 6.51976 18.1156 6.27718 17.9316 6.09188L12.1816 0.284569C12.0014 0.103085 11.7561 -5.56599e-05 11.4992 -5.56823e-05C11.2425 -5.57047e-05 10.9981 0.102142 10.817 0.284569Z" fill="white"/>
</svg>
