<?xml version="1.0" encoding="utf-8"?>
<!-- Generator: Adobe Illustrator 25.0.1, SVG Export Plug-In . SVG Version: 6.00 Build 0)  -->
<svg version="1.1" id="Layer_1" xmlns="http://www.w3.org/2000/svg" xmlns:xlink="http://www.w3.org/1999/xlink" x="0px" y="0px"
	 viewBox="0 0 23 23" style="enable-background:new 0 0 23 23;" xml:space="preserve">
<style type="text/css">
	.st0{fill:#b5b5b5;}
</style>
<path class="st0" d="M21.1,11.5v8.6c0,0.5-0.4,1-1,1H2.9c-0.5,0-1-0.4-1-1v-8.6c0-0.5-0.4-1-1-1c-0.5,0-1,0.4-1,1l0,8.6
	C0,21.7,1.3,23,2.9,23h17.2c1.6,0,2.9-1.3,2.9-2.9v-8.6c0-0.5-0.4-1-1-1C21.5,10.6,21.1,11,21.1,11.5z"/>
<path class="st0" d="M10.8,0.3L5.1,6.1c-0.4,0.4-0.4,1,0,1.4c0.4,0.4,1,0.4,1.4,0l4.1-4.2v11.1c0,0.5,0.4,1,1,1c0.5,0,1-0.4,1-1V3.3
	l4.1,4.2c0.4,0.4,1,0.4,1.4,0c0.2-0.2,0.3-0.4,0.3-0.7c0-0.2-0.1-0.5-0.3-0.7l-5.8-5.8C12,0.1,11.8,0,11.5,0C11.2,0,11,0.1,10.8,0.3
	z"/>
</svg>
