<?xml version="1.0" encoding="utf-8"?>
<!-- Generator: Adobe Illustrator 25.0.1, SVG Export Plug-In . SVG Version: 6.00 Build 0)  -->
<svg version="1.1" id="Layer_1" xmlns="http://www.w3.org/2000/svg" xmlns:xlink="http://www.w3.org/1999/xlink" x="0px" y="0px"
	 viewBox="0 0 24 24" style="enable-background:new 0 0 24 24;" xml:space="preserve">
<style type="text/css">
	.st0{fill:none;stroke:#000000;stroke-width:2;}
</style>
<g>
	<path d="M17.9,7.5c-0.6-0.2-1.3-0.4-2-0.5C15.1,4,12.3,1.8,9,1.8C5,1.8,1.8,5,1.8,9c0,3.3,2.2,6.1,5.2,6.9c0.1,0.7,0.2,1.3,0.5,2
		C3.3,17.2,0,13.5,0,9c0-5,4-9,9-9C13.5,0,17.2,3.3,17.9,7.5z"/>
</g>
<path class="st0" d="M23,15c0,4.4-3.6,8-8,8c-3.4,0-6.3-2.1-7.5-5.1c-0.2-0.6-0.4-1.3-0.5-2c0-0.3,0-0.6,0-0.9c0-4.4,3.6-8,8-8
	c0.3,0,0.6,0,0.9,0c0.7,0.1,1.3,0.2,2,0.5C20.9,8.7,23,11.6,23,15z"/>
<path d="M16.2,14.3c-0.7-0.3-1.5-0.6-1.9-0.9c-0.1-0.1-0.2-0.4-0.2-0.6c0-0.1,0.1-0.6,0.6-0.7c0.7-0.2,1.2,0.1,1.4,0.2
	c0.3,0.3,0.8,0.2,1.1-0.2c0.3-0.3,0.2-0.8-0.2-1.1c-0.2-0.1-0.6-0.4-1.2-0.5v-0.3c0-0.4-0.4-0.8-0.8-0.8c-0.4,0-0.8,0.4-0.8,0.8v0.4
	c0,0,0,0-0.1,0c-0.9,0.3-1.5,1-1.7,1.9c-0.2,0.9,0.1,1.7,0.7,2.2c0.5,0.4,1.2,0.7,2.4,1.2c0.8,0.3,0.8,0.9,0.7,1.2
	c-0.1,0.5-0.5,1.1-1.3,1.1c-0.8,0-1,0-1.6-0.4c-0.4-0.2-0.9-0.1-1.1,0.2c-0.2,0.4-0.1,0.9,0.2,1.1c0.6,0.4,1.1,0.6,1.7,0.6V20
	c0,0.4,0.4,0.8,0.8,0.8c0.4,0,0.8-0.4,0.8-0.8v-0.4c0.4-0.1,0.8-0.3,1.2-0.7c0.5-0.4,0.8-1,0.9-1.7C18.2,16,17.5,14.8,16.2,14.3z"/>
</svg>
