<svg width="24" height="24" viewBox="0 0 24 24" fill="none" xmlns="http://www.w3.org/2000/svg">
<circle r="8.1" transform="matrix(1 0 0 -1 9 9)" stroke="#B5B5B5" stroke-width="1.8"/>
<circle r="8" transform="matrix(1 0 0 -1 15 15)" fill="white" stroke="#B5B5B5" stroke-width="2"/>
<path d="M16.2224 14.3303C15.5074 14.0776 14.7168 13.7724 14.2734 13.4246C14.134 13.3153 14.0738 13.0651 14.1233 12.8019C14.1481 12.6706 14.2636 12.2318 14.7125 12.0966C15.4494 11.8746 15.9549 12.169 16.138 12.3059C16.4876 12.5671 16.9828 12.4957 17.2441 12.1461C17.5055 11.7965 17.434 11.3013 17.0844 11.0399C16.9185 10.9159 16.503 10.644 15.9073 10.512V10.1903C15.9073 9.75383 15.5535 9.39999 15.117 9.39999C14.6806 9.39999 14.3268 9.75383 14.3268 10.1903V10.5635C14.3034 10.57 14.2802 10.576 14.2566 10.5831C13.3911 10.8438 12.7449 11.5819 12.5701 12.5091C12.4093 13.3626 12.6881 14.19 13.2979 14.6683C13.8003 15.0623 14.495 15.3961 15.6956 15.8205C16.495 16.1031 16.4777 16.7501 16.4331 17.0151C16.3428 17.5524 15.8907 18.1331 15.1118 18.1383C14.3479 18.1437 14.1099 18.1056 13.523 17.7218C13.1578 17.4828 12.668 17.5851 12.429 17.9504C12.1901 18.3157 12.2925 18.8055 12.6577 19.0444C13.2906 19.4584 13.7576 19.6264 14.3268 19.6877V20.0489C14.3268 20.4853 14.6806 20.8392 15.117 20.8392C15.5535 20.8392 15.9073 20.4853 15.9073 20.0489V19.6118C16.3427 19.4919 16.7395 19.2729 17.0786 18.9614C17.5591 18.5198 17.8834 17.9217 17.9918 17.2771C18.2122 15.9666 17.5011 14.7823 16.2224 14.3303Z" fill="#B5B5B5"/>
</svg>
