<?xml version="1.0" encoding="utf-8"?>
<!-- Generator: Adobe Illustrator 25.0.1, SVG Export Plug-In . SVG Version: 6.00 Build 0)  -->
<svg version="1.1" id="Layer_1" xmlns="http://www.w3.org/2000/svg" xmlns:xlink="http://www.w3.org/1999/xlink" x="0px" y="0px"
	 viewBox="0 0 24 24" style="enable-background:new 0 0 24 24;" xml:space="preserve">
<style type="text/css">
	.st0{fill:#FFFFFF;}
</style>
<path class="st0" d="M12,0C5.4,0,0,5.4,0,12s5.4,12,12,12s12-5.4,12-12S18.6,0,12,0z M12,22C6.5,22,2,17.5,2,12C2,6.5,6.5,2,12,2
	s10,4.5,10,10C22,17.5,17.5,22,12,22z"/>
<g>
	<path class="st0" d="M8,16.5v-3"/>
	<path class="st0" d="M8,17.5c-0.6,0-1-0.4-1-1v-3c0-0.6,0.4-1,1-1s1,0.4,1,1v3C9,17.1,8.6,17.5,8,17.5z"/>
</g>
<g>
	<path class="st0" d="M12,16.5v-6"/>
	<path class="st0" d="M12,17.5c-0.6,0-1-0.4-1-1v-6c0-0.6,0.4-1,1-1s1,0.4,1,1v6C13,17.1,12.6,17.5,12,17.5z"/>
</g>
<g>
	<path class="st0" d="M16,16.5V7"/>
	<path class="st0" d="M16,17.5c-0.6,0-1-0.4-1-1V7c0-0.6,0.4-1,1-1s1,0.4,1,1v9.5C17,17.1,16.6,17.5,16,17.5z"/>
</g>
</svg>
