<svg width="21" height="21" viewBox="0 0 21 21" fill="none" xmlns="http://www.w3.org/2000/svg">
<path d="M3.93746 14.4375V14.6016C3.93746 14.9061 4.05846 15.1983 4.27383 15.4136C4.4892 15.629 4.78131 15.75 5.0859 15.75H9.35152C9.65611 15.75 9.94822 15.629 10.1636 15.4136C10.379 15.1983 10.5 14.9061 10.5 14.6016V14.4375C10.5131 13.8713 10.3379 13.3167 10.0017 12.8609C9.6656 12.4051 9.18759 12.0738 8.64277 11.9191C8.96414 11.6309 9.19048 11.2519 9.29187 10.8323C9.39325 10.4127 9.36492 9.97216 9.2106 9.56899C9.05628 9.16581 8.78325 8.81896 8.4276 8.57427C8.07194 8.32958 7.65041 8.19858 7.21871 8.19858C6.78701 8.19858 6.36548 8.32958 6.00982 8.57427C5.65417 8.81896 5.38114 9.16581 5.22682 9.56899C5.0725 9.97216 5.04417 10.4127 5.14555 10.8323C5.24694 11.2519 5.47328 11.6309 5.79465 11.9191C5.24983 12.0738 4.77182 12.4051 4.43567 12.8609C4.09952 13.3167 3.92428 13.8713 3.93746 14.4375ZM7.21871 8.85937C7.51075 8.85937 7.79623 8.94597 8.03904 9.10822C8.28186 9.27047 8.47112 9.50107 8.58288 9.77088C8.69463 10.0407 8.72387 10.3376 8.6669 10.624C8.60993 10.9104 8.4693 11.1735 8.2628 11.38C8.0563 11.5865 7.7932 11.7272 7.50677 11.7841C7.22035 11.8411 6.92346 11.8119 6.65365 11.7001C6.38385 11.5883 6.15324 11.3991 5.99099 11.1563C5.82875 10.9135 5.74215 10.628 5.74215 10.3359C5.74215 9.94433 5.89771 9.56876 6.17462 9.29185C6.45153 9.01494 6.8271 8.85937 7.21871 8.85937ZM6.56246 12.4687H7.87496C8.1351 12.4629 8.39371 12.5099 8.63521 12.6067C8.8767 12.7036 9.09606 12.8484 9.28005 13.0324C9.46404 13.2164 9.60884 13.4358 9.70572 13.6773C9.8026 13.9187 9.84954 14.1774 9.84371 14.4375V14.6016C9.84371 14.7321 9.79185 14.8573 9.69955 14.9496C9.60725 15.0419 9.48206 15.0937 9.35152 15.0937H5.0859C4.95536 15.0937 4.83017 15.0419 4.73787 14.9496C4.64557 14.8573 4.59371 14.7321 4.59371 14.6016V14.4375C4.58788 14.1774 4.63482 13.9187 4.7317 13.6773C4.82857 13.4358 4.97338 13.2164 5.15737 13.0324C5.34136 12.8484 5.56072 12.7036 5.80221 12.6067C6.04371 12.5099 6.30232 12.4629 6.56246 12.4687Z" fill="black"/>
<path d="M17.3906 12.1406C17.3036 12.1406 17.2201 12.1752 17.1586 12.2367C17.0971 12.2983 17.0625 12.3817 17.0625 12.4688V16.5703C17.0625 16.7008 17.0106 16.826 16.9183 16.9183C16.826 17.0106 16.7008 17.0625 16.5703 17.0625H3.11719C2.98665 17.0625 2.86146 17.0106 2.76916 16.9183C2.67686 16.826 2.625 16.7008 2.625 16.5703V7.05469C2.625 6.92415 2.67686 6.79896 2.76916 6.70666C2.86146 6.61436 2.98665 6.5625 3.11719 6.5625H10.3359C10.423 6.5625 10.5064 6.52793 10.568 6.46639C10.6295 6.40486 10.6641 6.3214 10.6641 6.23438C10.6641 6.14735 10.6295 6.06389 10.568 6.00236C10.5064 5.94082 10.423 5.90625 10.3359 5.90625H3.11719C2.8126 5.90625 2.52049 6.02725 2.30512 6.24262C2.08975 6.45799 1.96875 6.7501 1.96875 7.05469V16.5703C1.96875 16.8749 2.08975 17.167 2.30512 17.3824C2.52049 17.5978 2.8126 17.7188 3.11719 17.7188H16.5703C16.8749 17.7188 17.167 17.5978 17.3824 17.3824C17.5978 17.167 17.7188 16.8749 17.7188 16.5703V12.4688C17.7188 12.3817 17.6842 12.2983 17.6226 12.2367C17.5611 12.1752 17.4776 12.1406 17.3906 12.1406Z" fill="black"/>
<path d="M17.1035 6.00305L15.0396 8.06695L13.7403 6.76758C13.6787 6.70601 13.5952 6.67142 13.5081 6.67142C13.421 6.67142 13.3375 6.70601 13.276 6.76758C13.2144 6.82915 13.1798 6.91266 13.1798 6.99973C13.1798 7.0868 13.2144 7.17031 13.276 7.23188L14.8067 8.76258C14.8372 8.79329 14.8735 8.81765 14.9135 8.83426C14.9535 8.85088 14.9963 8.85941 15.0396 8.85938C15.1265 8.85901 15.2097 8.8242 15.271 8.76258L17.5678 6.4657C17.6243 6.40319 17.6545 6.32136 17.6523 6.23716C17.6501 6.15295 17.6156 6.07283 17.5559 6.01338C17.4962 5.95392 17.416 5.91969 17.3318 5.91777C17.2476 5.91585 17.1659 5.94638 17.1035 6.00305Z" fill="black"/>
<path d="M19.4053 4.17867C19.3972 4.10289 19.363 4.0323 19.3085 3.97901C19.254 3.92573 19.1827 3.89307 19.1067 3.88664C18.4809 3.80568 17.8698 3.63552 17.2922 3.38133C16.6956 3.13289 16.1397 2.79607 15.6434 2.38219C15.5829 2.32685 15.5039 2.29616 15.4219 2.29616C15.3399 2.29616 15.2609 2.32685 15.2004 2.38219C14.7042 2.79625 14.1483 3.13309 13.5516 3.38133C12.977 3.63445 12.3694 3.80459 11.7469 3.88664C11.6707 3.8927 11.5989 3.9252 11.5441 3.97852C11.4893 4.03184 11.4548 4.10264 11.4467 4.17867C11.4319 4.31812 11.1038 7.59445 11.9142 9.21211C12.8838 11.1448 15.1955 12.2292 15.2923 12.2752C15.3355 12.2951 15.3825 12.3055 15.4301 12.3055C15.4777 12.3055 15.5247 12.2951 15.5679 12.2752C15.6647 12.2292 17.9763 11.1448 18.946 9.21211C19.7482 7.59445 19.4201 4.31812 19.4053 4.17867ZM18.3504 8.91844C17.6138 10.3901 15.9141 11.3531 15.4219 11.6107C14.9297 11.3531 13.23 10.3901 12.4934 8.91844C11.8896 7.71094 12.011 5.2943 12.0701 4.50351C12.6681 4.39932 13.2517 4.22532 13.8092 3.98508C14.3838 3.74208 14.9256 3.42791 15.4219 3.04992C15.9182 3.42791 16.46 3.74208 17.0346 3.98508C17.592 4.22532 18.1757 4.39932 18.7737 4.50351C18.8344 5.2943 18.9558 7.71094 18.3504 8.91844Z" fill="black"/>
<path d="M12.1406 15.75H15.4219C15.5089 15.75 15.5924 15.7154 15.6539 15.6539C15.7154 15.5924 15.75 15.5089 15.75 15.4219C15.75 15.3349 15.7154 15.2514 15.6539 15.1899C15.5924 15.1283 15.5089 15.0938 15.4219 15.0938H12.1406C12.0536 15.0938 11.9701 15.1283 11.9086 15.1899C11.8471 15.2514 11.8125 15.3349 11.8125 15.4219C11.8125 15.5089 11.8471 15.5924 11.9086 15.6539C11.9701 15.7154 12.0536 15.75 12.1406 15.75Z" fill="black"/>
<path d="M12.1406 13.7812H14.1094C14.1964 13.7812 14.2799 13.7467 14.3414 13.6851C14.4029 13.6236 14.4375 13.5401 14.4375 13.4531C14.4375 13.3661 14.4029 13.2826 14.3414 13.2211C14.2799 13.1596 14.1964 13.125 14.1094 13.125H12.1406C12.0536 13.125 11.9701 13.1596 11.9086 13.2211C11.8471 13.2826 11.8125 13.3661 11.8125 13.4531C11.8125 13.5401 11.8471 13.6236 11.9086 13.6851C11.9701 13.7467 12.0536 13.7812 12.1406 13.7812Z" fill="black"/>
</svg>
