<svg width="20" height="20" viewBox="0 0 20 20" fill="none" xmlns="http://www.w3.org/2000/svg">
<g clip-path="url(#clip0_1_41)">
<path d="M2.38897 17.9667V18.6667C2.38897 19.403 2.98593 20 3.72231 20H6.99997C7.73635 20 8.33331 19.403 8.33331 18.6667V18H11.6666V18.6667C11.6666 19.403 12.2636 20 13 20H16.2776C17.014 20 17.611 19.403 17.611 18.6667V17.972C18.4112 17.8368 18.9977 17.1449 19 16.3333V1.66665C18.9989 0.746634 18.2533 0.00108678 17.3333 -1.52588e-05H2.72331C1.80329 0.00108678 1.05774 0.746634 1.05664 1.66665V2.99998C1.05664 3.18408 1.20588 3.33332 1.38997 3.33332C1.57407 3.33332 1.72331 3.18408 1.72331 2.99998V1.66665C1.72331 1.11437 2.17102 0.666651 2.72331 0.666651H17.3333C17.8856 0.666651 18.3333 1.11437 18.3333 1.66665V16.3333C18.3333 16.8856 17.8856 17.3333 17.3333 17.3333H2.72331C2.17102 17.3333 1.72331 16.8856 1.72331 16.3333V4.66665C1.72331 4.48256 1.57407 4.33332 1.38997 4.33332C1.20588 4.33332 1.05664 4.48256 1.05664 4.66665V16.3333C1.05754 17.1247 1.6139 17.8068 2.38897 17.9667ZM16.9443 18V18.6667C16.9443 19.0348 16.6458 19.3333 16.2776 19.3333H13C12.6318 19.3333 12.3333 19.0348 12.3333 18.6667V18H16.9443ZM7.66664 18V18.6667C7.66664 19.0348 7.36816 19.3333 6.99997 19.3333H3.72231C3.35412 19.3333 3.05564 19.0348 3.05564 18.6667V18H7.66664Z" fill="black"/>
<path d="M3.66659 11.3333C3.48249 11.3333 3.33325 11.4826 3.33325 11.6667V14.6667C3.33325 15.2189 3.78097 15.6667 4.33325 15.6667H15.6666C16.2189 15.6667 16.6666 15.2189 16.6666 14.6667V14.3333C17.2189 14.3333 17.6666 13.8856 17.6666 13.3333V11.3333C17.6666 10.781 17.2189 10.3333 16.6666 10.3333V7.66666C17.2189 7.66666 17.6666 7.21895 17.6666 6.66666V4.66666C17.6666 4.11438 17.2189 3.66666 16.6666 3.66666V3.33333C16.6666 2.78104 16.2189 2.33333 15.6666 2.33333H4.33325C3.78097 2.33333 3.33325 2.78104 3.33325 3.33333V10C3.33325 10.1841 3.48249 10.3333 3.66659 10.3333C3.85068 10.3333 3.99992 10.1841 3.99992 10V3.33333C3.99992 3.14923 4.14916 2.99999 4.33325 2.99999H15.6666C15.8507 2.99999 15.9999 3.14923 15.9999 3.33333V3.66666C15.4476 3.66666 14.9999 4.11438 14.9999 4.66666V6.66666C14.9999 7.21895 15.4476 7.66666 15.9999 7.66666V10.3333C15.4476 10.3333 14.9999 10.781 14.9999 11.3333V13.3333C14.9999 13.8856 15.4476 14.3333 15.9999 14.3333V14.6667C15.9999 14.8508 15.8507 15 15.6666 15H4.33325C4.14916 15 3.99992 14.8508 3.99992 14.6667V11.6667C3.99992 11.4826 3.85068 11.3333 3.66659 11.3333ZM15.6666 6.66666V4.66666C15.6666 4.48257 15.8158 4.33333 15.9999 4.33333H16.6666C16.8507 4.33333 16.9999 4.48257 16.9999 4.66666V6.66666C16.9999 6.85076 16.8507 7 16.6666 7H15.9999C15.8158 7 15.6666 6.85076 15.6666 6.66666ZM15.6666 13.3333V11.3333C15.6666 11.1492 15.8158 11 15.9999 11H16.6666C16.8507 11 16.9999 11.1492 16.9999 11.3333V13.3333C16.9999 13.5174 16.8507 13.6667 16.6666 13.6667H15.9999C15.8158 13.6667 15.6666 13.5174 15.6666 13.3333Z" fill="black"/>
<path d="M6.30469 10.5307C7.03494 12.2937 8.90892 13.2954 10.7806 12.9231C12.6522 12.5509 14.0002 10.9083 14.0002 9C14.0002 7.09169 12.6522 5.44913 10.7806 5.07685C8.90892 4.70457 7.03494 5.70627 6.30469 7.46933C5.89551 8.44876 5.89551 9.55124 6.30469 10.5307ZM8.42269 6.064L8.54403 6.35667C8.5879 6.46921 8.68922 6.54921 8.80887 6.56578C8.92852 6.58235 9.04777 6.53289 9.12058 6.4365C9.19338 6.34012 9.20835 6.21189 9.15969 6.10133L9.03869 5.80867C9.6654 5.61801 10.3347 5.61801 10.9614 5.80867L10.8404 6.10133C10.7917 6.21189 10.8067 6.34012 10.8795 6.4365C10.9523 6.53289 11.0715 6.58235 11.1912 6.56578C11.3108 6.54921 11.4122 6.46921 11.456 6.35667L11.5774 6.06367C12.1552 6.37213 12.6284 6.84539 12.9367 7.42333L12.644 7.54467C12.5315 7.58854 12.4515 7.68986 12.4349 7.80951C12.4183 7.92916 12.4678 8.04841 12.5642 8.12122C12.6606 8.19402 12.7888 8.20899 12.8994 8.16033L13.192 8.03933C13.3827 8.66604 13.3827 9.33529 13.192 9.962L12.8994 9.841C12.7888 9.79235 12.6606 9.80731 12.5642 9.88012C12.4678 9.95292 12.4183 10.0722 12.4349 10.1918C12.4515 10.3115 12.5315 10.4128 12.644 10.4567L12.937 10.578C12.6286 11.1559 12.1553 11.629 11.5774 11.9373L11.456 11.6447C11.4122 11.5321 11.3108 11.4521 11.1912 11.4356C11.0715 11.419 10.9523 11.4684 10.8795 11.5648C10.8067 11.6612 10.7917 11.7894 10.8404 11.9L10.9614 12.1927C10.3347 12.3833 9.6654 12.3833 9.03869 12.1927L9.15969 11.9C9.20835 11.7894 9.19338 11.6612 9.12058 11.5648C9.04777 11.4684 8.92852 11.419 8.80887 11.4356C8.68922 11.4521 8.5879 11.5321 8.54403 11.6447L8.42269 11.9377C7.84483 11.6292 7.37169 11.1559 7.06336 10.578L7.35603 10.4567C7.46857 10.4128 7.54857 10.3115 7.56514 10.1918C7.58171 10.0722 7.53225 9.95292 7.43587 9.88012C7.33948 9.80731 7.21125 9.79235 7.10069 9.841L6.80803 9.962C6.61737 9.33529 6.61737 8.66604 6.80803 8.03933L7.10069 8.16033C7.21125 8.20899 7.33948 8.19402 7.43587 8.12122C7.53225 8.04841 7.58171 7.92916 7.56514 7.80951C7.54857 7.68986 7.46857 7.58854 7.35603 7.54467L7.06303 7.42333C7.37139 6.84522 7.84466 6.37184 8.42269 6.06333V6.064Z" fill="black"/>
<path d="M10.0026 11C10.8834 10.9986 11.6596 10.4212 11.9142 9.578C12.1687 8.73479 11.8417 7.82432 11.1088 7.33581C10.3759 6.84729 9.40965 6.89575 8.7293 7.45514C8.04896 8.01453 7.81465 8.95316 8.15228 9.76666C8.46326 10.5138 9.19332 11.0004 10.0026 11ZM9.48962 7.76666C10.17 7.48597 10.9491 7.80968 11.2303 8.48987C11.5115 9.17006 11.1883 9.94943 10.5083 10.2311C9.82834 10.5127 9.04875 10.1901 8.76662 9.51033C8.62995 9.18336 8.62943 8.81536 8.76516 8.488C8.9009 8.16064 9.16167 7.90099 9.48962 7.76666Z" fill="black"/>
<path d="M6.66663 3.66666H4.99996C4.81586 3.66666 4.66663 3.8159 4.66663 4V5.66666C4.66663 5.85076 4.81586 6 4.99996 6C5.18405 6 5.33329 5.85076 5.33329 5.66666V4.33333H6.66663C6.85072 4.33333 6.99996 4.18409 6.99996 4C6.99996 3.8159 6.85072 3.66666 6.66663 3.66666Z" fill="black"/>
</g>
<defs>
<clipPath id="clip0_1_41">
<rect width="20" height="20" fill="white"/>
</clipPath>
</defs>
</svg>
