<svg width="26" height="26" viewBox="0 0 26 26" fill="none" xmlns="http://www.w3.org/2000/svg">
<path d="M9.80208 15.3277L2.08336 23.0463V20.8216C2.08336 20.4949 1.81846 20.23 1.49166 20.23C1.16495 20.23 0.9 20.4949 0.9 20.8216V24.4746V24.4752V24.5083C0.9 24.8352 1.16495 25.1 1.49166 25.1H5.1784C5.50508 25.1 5.77015 24.8353 5.77015 24.5083C5.77015 24.1816 5.50511 23.9166 5.1784 23.9166H2.8866L10.6388 16.1646C10.6388 16.1646 10.6388 16.1646 10.6388 16.1646C10.87 15.9334 10.87 15.5588 10.6388 15.3277C10.4077 15.0966 10.0331 15.0966 9.80208 15.3277Z" fill="#B5B5B5" stroke="#B5B5B5" stroke-width="0.2"/>
<path d="M23.0464 23.9166H20.7547C20.4279 23.9166 20.1629 24.1816 20.1629 24.5083C20.1629 24.8353 20.4279 25.1 20.7547 25.1H24.4414C24.7682 25.1 25.033 24.8352 25.033 24.5083V24.4752V24.4746V20.8216C25.033 20.4949 24.7682 20.23 24.4414 20.23C24.1146 20.23 23.8496 20.4949 23.8496 20.8216V23.0463L16.1311 15.3278L16.1311 15.3278C15.9 15.0969 15.5255 15.0968 15.2944 15.3278L15.2944 15.3278C15.0633 15.559 15.0632 15.9336 15.2944 16.1647C15.2944 16.1647 15.2944 16.1647 15.2945 16.1647L23.0464 23.9166Z" fill="#B5B5B5" stroke="#B5B5B5" stroke-width="0.2"/>
<path d="M2.88659 2.08341H5.1784C5.50508 2.08341 5.77015 1.81857 5.77015 1.4918C5.77015 1.16498 5.50512 0.9 5.1784 0.9H1.49166C1.16491 0.9 0.9 1.16501 0.9 1.4918V1.52501V1.5255V5.1784C0.9 5.50525 1.16496 5.77001 1.49166 5.77001C1.81845 5.77001 2.08336 5.50525 2.08336 5.1784V2.95389L9.80207 10.6723C9.80207 10.6723 9.80208 10.6723 9.80208 10.6723C10.0331 10.9035 10.4076 10.9035 10.6387 10.6724C10.6388 10.6723 10.6388 10.6723 10.6388 10.6723L2.88659 2.08341ZM2.88659 2.08341L10.6387 9.83561L2.88659 2.08341Z" fill="#B5B5B5" stroke="#B5B5B5" stroke-width="0.2"/>
<path d="M25.033 1.5255V5.1784C25.033 5.50523 24.7682 5.77001 24.4413 5.77001C24.1146 5.77001 23.8496 5.50526 23.8496 5.1784V2.95389L16.1311 10.6721C16.1311 10.6721 16.1311 10.6721 16.1311 10.6721C15.9 10.9034 15.5254 10.9034 15.2944 10.6721M25.033 1.5255L15.3651 10.6014M25.033 1.5255V1.52501V1.4918C25.033 1.16502 24.7682 0.9 24.4413 0.9H20.7546C20.4279 0.9 20.1629 1.16499 20.1629 1.4918C20.1629 1.81856 20.4279 2.08341 20.7546 2.08341H23.0464L15.2944 9.83543M25.033 1.5255L15.3651 9.90615M15.2944 10.6721L15.3651 10.6014M15.2944 10.6721C15.2944 10.6721 15.2944 10.6721 15.2945 10.6722L15.3651 10.6014M15.2944 10.6721C15.0632 10.4411 15.0633 10.0665 15.2944 9.83543M15.3651 10.6014C15.173 10.4095 15.173 10.0983 15.3651 9.90615M15.2944 9.83543L15.2944 9.83544L15.3651 9.90615M15.2944 9.83543L15.3651 9.90615" fill="#B5B5B5" stroke="#B5B5B5" stroke-width="0.2"/>
<path d="M13.5 4C8.80555 4 5 7.80559 5 12.5C5 17.1944 8.80555 21 13.5 21C18.1944 21 22 17.1944 22 12.5C21.9945 7.80789 18.1921 4.00553 13.5 4Z" fill="#B5B5B5"/>
<circle cx="13.5" cy="12.5" r="6.5" fill="white"/>
<circle cx="13.5" cy="12.5" r="3.75" fill="white" stroke="#B5B5B5" stroke-width="1.5" stroke-linejoin="round"/>
</svg>
