<svg width="24" height="24" viewBox="0 0 24 24" fill="none" xmlns="http://www.w3.org/2000/svg">
<path fill-rule="evenodd" clip-rule="evenodd" d="M0 7.5C0 3.35784 3.35784 0 7.5 0C11.1292 0.00386233 14.1553 2.58237 14.85 6.00744C14.7339 6.00262 14.6172 6.00012 14.5 6C9.80556 6 6 9.80556 6 14.5C6 14.6177 6.0024 14.7349 6.00713 14.8514C2.58021 14.1593 0 11.131 0 7.5Z" fill="#555555"/>
<path d="M15.5 6.99997C10.8056 6.99997 7.00003 10.8056 7.00003 15.5C7.00003 20.1943 10.8056 24 15.5 24C20.1945 24 24 20.1944 24 15.5C23.9945 10.8079 20.1922 7.0055 15.5 6.99997Z" fill="#555555"/>
<path d="M3.44999 18.7022C4.00721 20.4838 5.61747 21.7496 7.5042 21.85C7.86125 21.8522 8.15001 22.1424 8.15001 22.5C8.15001 22.859 7.85898 23.15 7.49999 23.15H7.49445L7.49446 23.1499C5.13717 23.0628 3.08782 21.5435 2.30541 19.3446L2.08219 19.7911L2.08213 19.7912C1.97208 20.0108 1.74768 20.1496 1.50219 20.15C1.40256 20.1527 1.30378 20.1322 1.21354 20.0902L1.21206 20.0897L1.20408 20.0857L3.44999 18.7022ZM3.44999 18.7022L4.20791 19.0812L4.20797 19.0812C4.52921 19.2416 4.91971 19.1113 5.0802 18.79L5.0802 18.79C5.24063 18.4688 5.11031 18.0783 4.78908 17.9178C4.78906 17.9178 4.78904 17.9178 4.78903 17.9178L2.78906 16.9178L2.78888 16.9177C2.76188 16.9043 2.73605 16.8997 2.72766 16.8982C2.72723 16.8981 2.72685 16.8981 2.72651 16.898C2.72583 16.8979 2.72523 16.8978 2.72471 16.8977C2.64583 16.8684 2.56208 16.8546 2.47809 16.8569C2.45909 16.8561 2.44005 16.8562 2.42106 16.8572L2.4037 16.8581L2.38701 16.863C2.37016 16.8679 2.35362 16.8735 2.33742 16.8797C2.17783 16.9203 2.03947 17.0199 1.95048 17.1586L1.94868 17.1606C1.94849 17.1608 1.94827 17.1611 1.94804 17.1613C1.94208 17.1678 1.925 17.1865 1.91183 17.2129L3.44999 18.7022ZM0.911841 19.2129C0.751488 19.5337 0.88124 19.9236 1.2016 20.0845L1.91174 17.2131L0.911846 19.2129L0.911841 19.2129ZM1.19472 20.0808C1.19324 20.0799 1.19242 20.0794 1.19273 20.0796L1.19274 20.0796L1.19277 20.0796L1.19286 20.0797L1.19323 20.0799L1.19466 20.0807L1.19472 20.0808Z" fill="#555555" stroke="#555555" stroke-width="0.3"/>
<mask id="path-4-outside-1_1_180" maskUnits="userSpaceOnUse" x="15" y="-3.05176e-05" width="9" height="8" fill="black">
<rect fill="white" x="15" y="-3.05176e-05" width="9" height="8"/>
<path d="M22.724 4.05097C22.477 3.9275 22.1767 4.02763 22.0532 4.27461C22.0531 4.27475 22.053 4.27484 22.053 4.27498L21.665 5.051C21.0028 2.72427 18.9175 1.0887 16.5 0.999969C16.2239 0.999969 16 1.22384 16 1.49999C16 1.77613 16.2239 2 16.5 2C18.5646 2.10847 20.3094 3.56731 20.782 5.57999L19.724 5.051C19.4768 4.92758 19.1764 5.02784 19.053 5.27502C18.9295 5.52214 19.0298 5.82256 19.277 5.94603L21.277 6.94602C21.284 6.94602 21.291 6.94602 21.298 6.94602C21.3606 6.97836 21.4296 6.99678 21.5 7.00002C21.591 7.00086 21.6805 6.97592 21.758 6.92802L21.767 6.92C21.833 6.87627 21.8876 6.8173 21.926 6.74802C21.932 6.73803 21.943 6.734 21.9479 6.72402L22.9479 4.724C23.0723 4.47744 22.9732 4.17678 22.7267 4.05238C22.7258 4.05191 22.7249 4.05144 22.724 4.05097Z"/>
</mask>
<path d="M22.724 4.05097C22.477 3.9275 22.1767 4.02763 22.0532 4.27461C22.0531 4.27475 22.053 4.27484 22.053 4.27498L21.665 5.051C21.0028 2.72427 18.9175 1.0887 16.5 0.999969C16.2239 0.999969 16 1.22384 16 1.49999C16 1.77613 16.2239 2 16.5 2C18.5646 2.10847 20.3094 3.56731 20.782 5.57999L19.724 5.051C19.4768 4.92758 19.1764 5.02784 19.053 5.27502C18.9295 5.52214 19.0298 5.82256 19.277 5.94603L21.277 6.94602C21.284 6.94602 21.291 6.94602 21.298 6.94602C21.3606 6.97836 21.4296 6.99678 21.5 7.00002C21.591 7.00086 21.6805 6.97592 21.758 6.92802L21.767 6.92C21.833 6.87627 21.8876 6.8173 21.926 6.74802C21.932 6.73803 21.943 6.734 21.9479 6.72402L22.9479 4.724C23.0723 4.47744 22.9732 4.17678 22.7267 4.05238C22.7258 4.05191 22.7249 4.05144 22.724 4.05097Z" fill="#555555"/>
<path d="M22.724 4.05097L22.8638 3.78544L22.8581 3.78263L22.724 4.05097ZM22.0532 4.27461L21.7849 4.14043L21.7753 4.15951L21.7686 4.17974L22.0532 4.27461ZM22.053 4.27498L22.3213 4.40914L22.3309 4.39008L22.3376 4.36985L22.053 4.27498ZM21.665 5.051L21.3765 5.13312L21.5879 5.87606L21.9333 5.18516L21.665 5.051ZM16.5 0.999969L16.511 0.699969H16.5V0.999969ZM16.5 2L16.5158 1.70041L16.5079 1.7H16.5V2ZM20.782 5.57999L20.6478 5.84832L21.2203 6.13457L21.074 5.51141L20.782 5.57999ZM19.724 5.051L19.8581 4.78267L19.858 4.78261L19.724 5.051ZM19.053 5.27502L18.7846 5.14095L18.7846 5.14097L19.053 5.27502ZM19.277 5.94603L19.4111 5.6777L19.411 5.67765L19.277 5.94603ZM21.277 6.94602L21.1428 7.21435L21.2062 7.24602H21.277V6.94602ZM21.298 6.94602L21.4356 6.67943L21.3708 6.64602H21.298V6.94602ZM21.5 7.00002L21.4862 7.2999L21.4972 7.3L21.5 7.00002ZM21.758 6.92802L21.9157 7.18318L21.938 7.16943L21.9575 7.15204L21.758 6.92802ZM21.767 6.92L21.6013 6.66987L21.5834 6.68171L21.5674 6.69598L21.767 6.92ZM21.926 6.74802L21.6687 6.59339L21.6636 6.60261L21.926 6.74802ZM21.9479 6.72402L21.6796 6.58985L21.6794 6.59036L21.9479 6.72402ZM22.9479 4.724L22.6801 4.5889L22.6796 4.58984L22.9479 4.724ZM22.7267 4.05238L22.587 4.31789L22.5916 4.3202L22.7267 4.05238ZM22.8581 3.78263C22.463 3.58507 21.9825 3.74529 21.7849 4.14043L22.3215 4.40879C22.3709 4.30996 22.4911 4.26993 22.5899 4.31931L22.8581 3.78263ZM21.7686 4.17974C21.7749 4.16067 21.7821 4.14561 21.7874 4.1355C21.79 4.13055 21.7922 4.12661 21.7936 4.12418C21.7949 4.12197 21.796 4.12011 21.7958 4.12043C21.7958 4.12043 21.7958 4.12043 21.7958 4.12044C21.7958 4.12044 21.7958 4.12045 21.7958 4.12045C21.7958 4.12046 21.7958 4.12048 21.7958 4.1205C21.7958 4.12054 21.7957 4.1206 21.7957 4.12068C21.7956 4.12084 21.7955 4.12109 21.7953 4.1214C21.7949 4.12202 21.7943 4.12302 21.7936 4.12427C21.7922 4.12673 21.7899 4.1307 21.7873 4.13568C21.782 4.14585 21.7748 4.16097 21.7684 4.18012L22.3376 4.36985C22.3312 4.38893 22.3241 4.40399 22.3188 4.41409C22.3162 4.41904 22.3139 4.42299 22.3125 4.42542C22.3113 4.42762 22.3101 4.42949 22.3103 4.42916C22.3103 4.42916 22.3103 4.42916 22.3103 4.42916C22.3103 4.42915 22.3103 4.42915 22.3103 4.42914C22.3103 4.42913 22.3103 4.42912 22.3104 4.4291C22.3104 4.42906 22.3104 4.42899 22.3105 4.42891C22.3106 4.42876 22.3107 4.42851 22.3109 4.42819C22.3113 4.42758 22.3119 4.42658 22.3126 4.42533C22.314 4.42287 22.3163 4.4189 22.3189 4.41391C22.3242 4.40375 22.3314 4.38862 22.3378 4.36948L21.7686 4.17974ZM21.7847 4.14083L21.3967 4.91684L21.9333 5.18516L22.3213 4.40914L21.7847 4.14083ZM21.9535 4.96888C21.2558 2.51712 19.0584 0.793674 16.511 0.700171L16.489 1.29977C18.7766 1.38373 20.7498 2.93141 21.3765 5.13312L21.9535 4.96888ZM16.5 0.699969C16.0582 0.699969 15.7 1.05816 15.7 1.49999H16.3C16.3 1.38953 16.3896 1.29997 16.5 1.29997V0.699969ZM15.7 1.49999C15.7 1.94181 16.0582 2.3 16.5 2.3V1.7C16.3896 1.7 16.3 1.61044 16.3 1.49999H15.7ZM16.4843 2.29959C18.4156 2.40106 20.0479 3.76576 20.4899 5.64856L21.074 5.51141C20.571 3.36887 18.7135 1.81588 16.5158 1.70041L16.4843 2.29959ZM20.9161 5.31166L19.8581 4.78267L19.5898 5.31933L20.6478 5.84832L20.9161 5.31166ZM19.858 4.78261C19.4627 4.58516 18.9821 4.74558 18.7846 5.14095L19.3213 5.40908C19.3708 5.31011 19.491 5.27 19.5899 5.31939L19.858 4.78261ZM18.7846 5.14097C18.5871 5.53633 18.7475 6.01691 19.1429 6.21441L19.411 5.67765C19.3121 5.62822 19.272 5.50796 19.3213 5.40906L18.7846 5.14097ZM19.1428 6.21436L21.1428 7.21435L21.4111 6.67769L19.4111 5.6777L19.1428 6.21436ZM21.277 7.24602C21.277 7.24602 21.277 7.24602 21.277 7.24602C21.277 7.24602 21.277 7.24602 21.2771 7.24602C21.2771 7.24602 21.2771 7.24602 21.2771 7.24602C21.2771 7.24602 21.2771 7.24602 21.2771 7.24602C21.2772 7.24602 21.2772 7.24602 21.2772 7.24602C21.2772 7.24602 21.2772 7.24602 21.2772 7.24602C21.2772 7.24602 21.2773 7.24602 21.2773 7.24602C21.2773 7.24602 21.2773 7.24602 21.2773 7.24602C21.2773 7.24602 21.2773 7.24602 21.2773 7.24602C21.2774 7.24602 21.2774 7.24602 21.2774 7.24602C21.2774 7.24602 21.2774 7.24602 21.2774 7.24602C21.2774 7.24602 21.2775 7.24602 21.2775 7.24602C21.2775 7.24602 21.2775 7.24602 21.2775 7.24602C21.2775 7.24602 21.2775 7.24602 21.2776 7.24602C21.2776 7.24602 21.2776 7.24602 21.2776 7.24602C21.2776 7.24602 21.2776 7.24602 21.2776 7.24602C21.2776 7.24602 21.2777 7.24602 21.2777 7.24602C21.2777 7.24602 21.2777 7.24602 21.2777 7.24602C21.2777 7.24602 21.2777 7.24602 21.2778 7.24602C21.2778 7.24602 21.2778 7.24602 21.2778 7.24602C21.2778 7.24602 21.2778 7.24602 21.2778 7.24602C21.2779 7.24602 21.2779 7.24602 21.2779 7.24602C21.2779 7.24602 21.2779 7.24602 21.2779 7.24602C21.2779 7.24602 21.2779 7.24602 21.278 7.24602C21.278 7.24602 21.278 7.24602 21.278 7.24602C21.278 7.24602 21.278 7.24602 21.278 7.24602C21.2781 7.24602 21.2781 7.24602 21.2781 7.24602C21.2781 7.24602 21.2781 7.24602 21.2781 7.24602C21.2781 7.24602 21.2782 7.24602 21.2782 7.24602C21.2782 7.24602 21.2782 7.24602 21.2782 7.24602C21.2782 7.24602 21.2782 7.24602 21.2782 7.24602C21.2783 7.24602 21.2783 7.24602 21.2783 7.24602C21.2783 7.24602 21.2783 7.24602 21.2783 7.24602C21.2783 7.24602 21.2784 7.24602 21.2784 7.24602C21.2784 7.24602 21.2784 7.24602 21.2784 7.24602C21.2784 7.24602 21.2784 7.24602 21.2785 7.24602C21.2785 7.24602 21.2785 7.24602 21.2785 7.24602C21.2785 7.24602 21.2785 7.24602 21.2785 7.24602C21.2785 7.24602 21.2786 7.24602 21.2786 7.24602C21.2786 7.24602 21.2786 7.24602 21.2786 7.24602C21.2786 7.24602 21.2786 7.24602 21.2787 7.24602C21.2787 7.24602 21.2787 7.24602 21.2787 7.24602C21.2787 7.24602 21.2787 7.24602 21.2787 7.24602C21.2788 7.24602 21.2788 7.24602 21.2788 7.24602C21.2788 7.24602 21.2788 7.24602 21.2788 7.24602C21.2788 7.24602 21.2788 7.24602 21.2789 7.24602C21.2789 7.24602 21.2789 7.24602 21.2789 7.24602C21.2789 7.24602 21.2789 7.24602 21.2789 7.24602C21.279 7.24602 21.279 7.24602 21.279 7.24602C21.279 7.24602 21.279 7.24602 21.279 7.24602C21.279 7.24602 21.2791 7.24602 21.2791 7.24602C21.2791 7.24602 21.2791 7.24602 21.2791 7.24602C21.2791 7.24602 21.2791 7.24602 21.2791 7.24602C21.2792 7.24602 21.2792 7.24602 21.2792 7.24602C21.2792 7.24602 21.2792 7.24602 21.2792 7.24602C21.2792 7.24602 21.2793 7.24602 21.2793 7.24602C21.2793 7.24602 21.2793 7.24602 21.2793 7.24602C21.2793 7.24602 21.2793 7.24602 21.2794 7.24602C21.2794 7.24602 21.2794 7.24602 21.2794 7.24602C21.2794 7.24602 21.2794 7.24602 21.2794 7.24602C21.2794 7.24602 21.2795 7.24602 21.2795 7.24602C21.2795 7.24602 21.2795 7.24602 21.2795 7.24602C21.2795 7.24602 21.2795 7.24602 21.2796 7.24602C21.2796 7.24602 21.2796 7.24602 21.2796 7.24602C21.2796 7.24602 21.2796 7.24602 21.2796 7.24602C21.2797 7.24602 21.2797 7.24602 21.2797 7.24602C21.2797 7.24602 21.2797 7.24602 21.2797 7.24602C21.2797 7.24602 21.2797 7.24602 21.2798 7.24602C21.2798 7.24602 21.2798 7.24602 21.2798 7.24602C21.2798 7.24602 21.2798 7.24602 21.2798 7.24602C21.2799 7.24602 21.2799 7.24602 21.2799 7.24602C21.2799 7.24602 21.2799 7.24602 21.2799 7.24602C21.2799 7.24602 21.28 7.24602 21.28 7.24602C21.28 7.24602 21.28 7.24602 21.28 7.24602C21.28 7.24602 21.28 7.24602 21.28 7.24602C21.2801 7.24602 21.2801 7.24602 21.2801 7.24602C21.2801 7.24602 21.2801 7.24602 21.2801 7.24602C21.2801 7.24602 21.2802 7.24602 21.2802 7.24602C21.2802 7.24602 21.2802 7.24602 21.2802 7.24602C21.2802 7.24602 21.2802 7.24602 21.2803 7.24602C21.2803 7.24602 21.2803 7.24602 21.2803 7.24602C21.2803 7.24602 21.2803 7.24602 21.2803 7.24602C21.2804 7.24602 21.2804 7.24602 21.2804 7.24602C21.2804 7.24602 21.2804 7.24602 21.2804 7.24602C21.2804 7.24602 21.2804 7.24602 21.2805 7.24602C21.2805 7.24602 21.2805 7.24602 21.2805 7.24602C21.2805 7.24602 21.2805 7.24602 21.2805 7.24602C21.2806 7.24602 21.2806 7.24602 21.2806 7.24602C21.2806 7.24602 21.2806 7.24602 21.2806 7.24602C21.2806 7.24602 21.2807 7.24602 21.2807 7.24602C21.2807 7.24602 21.2807 7.24602 21.2807 7.24602C21.2807 7.24602 21.2807 7.24602 21.2807 7.24602C21.2808 7.24602 21.2808 7.24602 21.2808 7.24602C21.2808 7.24602 21.2808 7.24602 21.2808 7.24602C21.2808 7.24602 21.2809 7.24602 21.2809 7.24602C21.2809 7.24602 21.2809 7.24602 21.2809 7.24602C21.2809 7.24602 21.2809 7.24602 21.281 7.24602C21.281 7.24602 21.281 7.24602 21.281 7.24602C21.281 7.24602 21.281 7.24602 21.281 7.24602C21.281 7.24602 21.2811 7.24602 21.2811 7.24602C21.2811 7.24602 21.2811 7.24602 21.2811 7.24602C21.2811 7.24602 21.2811 7.24602 21.2812 7.24602C21.2812 7.24602 21.2812 7.24602 21.2812 7.24602C21.2812 7.24602 21.2812 7.24602 21.2812 7.24602C21.2813 7.24602 21.2813 7.24602 21.2813 7.24602C21.2813 7.24602 21.2813 7.24602 21.2813 7.24602C21.2813 7.24602 21.2813 7.24602 21.2814 7.24602C21.2814 7.24602 21.2814 7.24602 21.2814 7.24602C21.2814 7.24602 21.2814 7.24602 21.2814 7.24602C21.2815 7.24602 21.2815 7.24602 21.2815 7.24602C21.2815 7.24602 21.2815 7.24602 21.2815 7.24602C21.2815 7.24602 21.2816 7.24602 21.2816 7.24602C21.2816 7.24602 21.2816 7.24602 21.2816 7.24602C21.2816 7.24602 21.2816 7.24602 21.2816 7.24602C21.2817 7.24602 21.2817 7.24602 21.2817 7.24602C21.2817 7.24602 21.2817 7.24602 21.2817 7.24602C21.2817 7.24602 21.2818 7.24602 21.2818 7.24602C21.2818 7.24602 21.2818 7.24602 21.2818 7.24602C21.2818 7.24602 21.2818 7.24602 21.2819 7.24602C21.2819 7.24602 21.2819 7.24602 21.2819 7.24602C21.2819 7.24602 21.2819 7.24602 21.2819 7.24602C21.2819 7.24602 21.282 7.24602 21.282 7.24602C21.282 7.24602 21.282 7.24602 21.282 7.24602C21.282 7.24602 21.282 7.24602 21.2821 7.24602C21.2821 7.24602 21.2821 7.24602 21.2821 7.24602C21.2821 7.24602 21.2821 7.24602 21.2821 7.24602C21.2822 7.24602 21.2822 7.24602 21.2822 7.24602C21.2822 7.24602 21.2822 7.24602 21.2822 7.24602C21.2822 7.24602 21.2823 7.24602 21.2823 7.24602C21.2823 7.24602 21.2823 7.24602 21.2823 7.24602C21.2823 7.24602 21.2823 7.24602 21.2823 7.24602C21.2824 7.24602 21.2824 7.24602 21.2824 7.24602C21.2824 7.24602 21.2824 7.24602 21.2824 7.24602C21.2824 7.24602 21.2825 7.24602 21.2825 7.24602C21.2825 7.24602 21.2825 7.24602 21.2825 7.24602C21.2825 7.24602 21.2825 7.24602 21.2826 7.24602C21.2826 7.24602 21.2826 7.24602 21.2826 7.24602C21.2826 7.24602 21.2826 7.24602 21.2826 7.24602C21.2826 7.24602 21.2827 7.24602 21.2827 7.24602C21.2827 7.24602 21.2827 7.24602 21.2827 7.24602C21.2827 7.24602 21.2827 7.24602 21.2828 7.24602C21.2828 7.24602 21.2828 7.24602 21.2828 7.24602C21.2828 7.24602 21.2828 7.24602 21.2828 7.24602C21.2829 7.24602 21.2829 7.24602 21.2829 7.24602C21.2829 7.24602 21.2829 7.24602 21.2829 7.24602C21.2829 7.24602 21.2829 7.24602 21.283 7.24602C21.283 7.24602 21.283 7.24602 21.283 7.24602C21.283 7.24602 21.283 7.24602 21.283 7.24602C21.2831 7.24602 21.2831 7.24602 21.2831 7.24602C21.2831 7.24602 21.2831 7.24602 21.2831 7.24602C21.2831 7.24602 21.2832 7.24602 21.2832 7.24602C21.2832 7.24602 21.2832 7.24602 21.2832 7.24602C21.2832 7.24602 21.2832 7.24602 21.2832 7.24602C21.2833 7.24602 21.2833 7.24602 21.2833 7.24602C21.2833 7.24602 21.2833 7.24602 21.2833 7.24602C21.2833 7.24602 21.2834 7.24602 21.2834 7.24602C21.2834 7.24602 21.2834 7.24602 21.2834 7.24602C21.2834 7.24602 21.2834 7.24602 21.2835 7.24602C21.2835 7.24602 21.2835 7.24602 21.2835 7.24602C21.2835 7.24602 21.2835 7.24602 21.2835 7.24602C21.2835 7.24602 21.2836 7.24602 21.2836 7.24602C21.2836 7.24602 21.2836 7.24602 21.2836 7.24602C21.2836 7.24602 21.2836 7.24602 21.2837 7.24602C21.2837 7.24602 21.2837 7.24602 21.2837 7.24602C21.2837 7.24602 21.2837 7.24602 21.2837 7.24602C21.2838 7.24602 21.2838 7.24602 21.2838 7.24602C21.2838 7.24602 21.2838 7.24602 21.2838 7.24602C21.2838 7.24602 21.2839 7.24602 21.2839 7.24602C21.2839 7.24602 21.2839 7.24602 21.2839 7.24602C21.2839 7.24602 21.2839 7.24602 21.2839 7.24602C21.284 7.24602 21.284 7.24602 21.284 7.24602C21.284 7.24602 21.284 7.24602 21.284 7.24602C21.284 7.24602 21.2841 7.24602 21.2841 7.24602C21.2841 7.24602 21.2841 7.24602 21.2841 7.24602C21.2841 7.24602 21.2841 7.24602 21.2842 7.24602C21.2842 7.24602 21.2842 7.24602 21.2842 7.24602C21.2842 7.24602 21.2842 7.24602 21.2842 7.24602C21.2842 7.24602 21.2843 7.24602 21.2843 7.24602C21.2843 7.24602 21.2843 7.24602 21.2843 7.24602C21.2843 7.24602 21.2843 7.24602 21.2844 7.24602C21.2844 7.24602 21.2844 7.24602 21.2844 7.24602C21.2844 7.24602 21.2844 7.24602 21.2844 7.24602C21.2845 7.24602 21.2845 7.24602 21.2845 7.24602C21.2845 7.24602 21.2845 7.24602 21.2845 7.24602C21.2845 7.24602 21.2845 7.24602 21.2846 7.24602C21.2846 7.24602 21.2846 7.24602 21.2846 7.24602C21.2846 7.24602 21.2846 7.24602 21.2846 7.24602C21.2847 7.24602 21.2847 7.24602 21.2847 7.24602C21.2847 7.24602 21.2847 7.24602 21.2847 7.24602C21.2847 7.24602 21.2848 7.24602 21.2848 7.24602C21.2848 7.24602 21.2848 7.24602 21.2848 7.24602C21.2848 7.24602 21.2848 7.24602 21.2848 7.24602C21.2849 7.24602 21.2849 7.24602 21.2849 7.24602C21.2849 7.24602 21.2849 7.24602 21.2849 7.24602C21.2849 7.24602 21.285 7.24602 21.285 7.24602C21.285 7.24602 21.285 7.24602 21.285 7.24602C21.285 7.24602 21.285 7.24602 21.2851 7.24602C21.2851 7.24602 21.2851 7.24602 21.2851 7.24602C21.2851 7.24602 21.2851 7.24602 21.2851 7.24602C21.2852 7.24602 21.2852 7.24602 21.2852 7.24602C21.2852 7.24602 21.2852 7.24602 21.2852 7.24602C21.2852 7.24602 21.2852 7.24602 21.2853 7.24602C21.2853 7.24602 21.2853 7.24602 21.2853 7.24602C21.2853 7.24602 21.2853 7.24602 21.2853 7.24602C21.2854 7.24602 21.2854 7.24602 21.2854 7.24602C21.2854 7.24602 21.2854 7.24602 21.2854 7.24602C21.2854 7.24602 21.2855 7.24602 21.2855 7.24602C21.2855 7.24602 21.2855 7.24602 21.2855 7.24602C21.2855 7.24602 21.2855 7.24602 21.2855 7.24602C21.2856 7.24602 21.2856 7.24602 21.2856 7.24602C21.2856 7.24602 21.2856 7.24602 21.2856 7.24602C21.2856 7.24602 21.2857 7.24602 21.2857 7.24602C21.2857 7.24602 21.2857 7.24602 21.2857 7.24602C21.2857 7.24602 21.2857 7.24602 21.2858 7.24602C21.2858 7.24602 21.2858 7.24602 21.2858 7.24602C21.2858 7.24602 21.2858 7.24602 21.2858 7.24602C21.2858 7.24602 21.2859 7.24602 21.2859 7.24602C21.2859 7.24602 21.2859 7.24602 21.2859 7.24602C21.2859 7.24602 21.2859 7.24602 21.286 7.24602C21.286 7.24602 21.286 7.24602 21.286 7.24602C21.286 7.24602 21.286 7.24602 21.286 7.24602C21.2861 7.24602 21.2861 7.24602 21.2861 7.24602C21.2861 7.24602 21.2861 7.24602 21.2861 7.24602C21.2861 7.24602 21.2861 7.24602 21.2862 7.24602C21.2862 7.24602 21.2862 7.24602 21.2862 7.24602C21.2862 7.24602 21.2862 7.24602 21.2862 7.24602C21.2863 7.24602 21.2863 7.24602 21.2863 7.24602C21.2863 7.24602 21.2863 7.24602 21.2863 7.24602C21.2863 7.24602 21.2864 7.24602 21.2864 7.24602C21.2864 7.24602 21.2864 7.24602 21.2864 7.24602C21.2864 7.24602 21.2864 7.24602 21.2865 7.24602C21.2865 7.24602 21.2865 7.24602 21.2865 7.24602C21.2865 7.24602 21.2865 7.24602 21.2865 7.24602C21.2865 7.24602 21.2866 7.24602 21.2866 7.24602C21.2866 7.24602 21.2866 7.24602 21.2866 7.24602C21.2866 7.24602 21.2866 7.24602 21.2867 7.24602C21.2867 7.24602 21.2867 7.24602 21.2867 7.24602C21.2867 7.24602 21.2867 7.24602 21.2867 7.24602C21.2868 7.24602 21.2868 7.24602 21.2868 7.24602C21.2868 7.24602 21.2868 7.24602 21.2868 7.24602C21.2868 7.24602 21.2868 7.24602 21.2869 7.24602C21.2869 7.24602 21.2869 7.24602 21.2869 7.24602C21.2869 7.24602 21.2869 7.24602 21.2869 7.24602C21.287 7.24602 21.287 7.24602 21.287 7.24602C21.287 7.24602 21.287 7.24602 21.287 7.24602C21.287 7.24602 21.2871 7.24602 21.2871 7.24602C21.2871 7.24602 21.2871 7.24602 21.2871 7.24602C21.2871 7.24602 21.2871 7.24602 21.2871 7.24602C21.2872 7.24602 21.2872 7.24602 21.2872 7.24602C21.2872 7.24602 21.2872 7.24602 21.2872 7.24602C21.2872 7.24602 21.2873 7.24602 21.2873 7.24602C21.2873 7.24602 21.2873 7.24602 21.2873 7.24602C21.2873 7.24602 21.2873 7.24602 21.2874 7.24602C21.2874 7.24602 21.2874 7.24602 21.2874 7.24602C21.2874 7.24602 21.2874 7.24602 21.2874 7.24602C21.2875 7.24602 21.2875 7.24602 21.2875 7.24602C21.2875 7.24602 21.2875 7.24602 21.2875 7.24602C21.2875 7.24602 21.2875 7.24602 21.2876 7.24602C21.2876 7.24602 21.2876 7.24602 21.2876 7.24602C21.2876 7.24602 21.2876 7.24602 21.2876 7.24602C21.2877 7.24602 21.2877 7.24602 21.2877 7.24602C21.2877 7.24602 21.2877 7.24602 21.2877 7.24602C21.2877 7.24602 21.2878 7.24602 21.2878 7.24602C21.2878 7.24602 21.2878 7.24602 21.2878 7.24602C21.2878 7.24602 21.2878 7.24602 21.2878 7.24602C21.2879 7.24602 21.2879 7.24602 21.2879 7.24602C21.2879 7.24602 21.2879 7.24602 21.2879 7.24602C21.2879 7.24602 21.288 7.24602 21.288 7.24602C21.288 7.24602 21.288 7.24602 21.288 7.24602C21.288 7.24602 21.288 7.24602 21.2881 7.24602C21.2881 7.24602 21.2881 7.24602 21.2881 7.24602C21.2881 7.24602 21.2881 7.24602 21.2881 7.24602C21.2881 7.24602 21.2882 7.24602 21.2882 7.24602C21.2882 7.24602 21.2882 7.24602 21.2882 7.24602C21.2882 7.24602 21.2882 7.24602 21.2883 7.24602C21.2883 7.24602 21.2883 7.24602 21.2883 7.24602C21.2883 7.24602 21.2883 7.24602 21.2883 7.24602C21.2884 7.24602 21.2884 7.24602 21.2884 7.24602C21.2884 7.24602 21.2884 7.24602 21.2884 7.24602C21.2884 7.24602 21.2884 7.24602 21.2885 7.24602C21.2885 7.24602 21.2885 7.24602 21.2885 7.24602C21.2885 7.24602 21.2885 7.24602 21.2885 7.24602C21.2886 7.24602 21.2886 7.24602 21.2886 7.24602C21.2886 7.24602 21.2886 7.24602 21.2886 7.24602C21.2886 7.24602 21.2887 7.24602 21.2887 7.24602C21.2887 7.24602 21.2887 7.24602 21.2887 7.24602C21.2887 7.24602 21.2887 7.24602 21.2888 7.24602C21.2888 7.24602 21.2888 7.24602 21.2888 7.24602C21.2888 7.24602 21.2888 7.24602 21.2888 7.24602C21.2888 7.24602 21.2889 7.24602 21.2889 7.24602C21.2889 7.24602 21.2889 7.24602 21.2889 7.24602C21.2889 7.24602 21.2889 7.24602 21.289 7.24602C21.289 7.24602 21.289 7.24602 21.289 7.24602C21.289 7.24602 21.289 7.24602 21.289 7.24602C21.2891 7.24602 21.2891 7.24602 21.2891 7.24602C21.2891 7.24602 21.2891 7.24602 21.2891 7.24602C21.2891 7.24602 21.2891 7.24602 21.2892 7.24602C21.2892 7.24602 21.2892 7.24602 21.2892 7.24602C21.2892 7.24602 21.2892 7.24602 21.2892 7.24602C21.2893 7.24602 21.2893 7.24602 21.2893 7.24602C21.2893 7.24602 21.2893 7.24602 21.2893 7.24602C21.2893 7.24602 21.2894 7.24602 21.2894 7.24602C21.2894 7.24602 21.2894 7.24602 21.2894 7.24602C21.2894 7.24602 21.2894 7.24602 21.2894 7.24602C21.2895 7.24602 21.2895 7.24602 21.2895 7.24602C21.2895 7.24602 21.2895 7.24602 21.2895 7.24602C21.2895 7.24602 21.2896 7.24602 21.2896 7.24602C21.2896 7.24602 21.2896 7.24602 21.2896 7.24602C21.2896 7.24602 21.2896 7.24602 21.2897 7.24602C21.2897 7.24602 21.2897 7.24602 21.2897 7.24602C21.2897 7.24602 21.2897 7.24602 21.2897 7.24602C21.2897 7.24602 21.2898 7.24602 21.2898 7.24602C21.2898 7.24602 21.2898 7.24602 21.2898 7.24602C21.2898 7.24602 21.2898 7.24602 21.2899 7.24602C21.2899 7.24602 21.2899 7.24602 21.2899 7.24602C21.2899 7.24602 21.2899 7.24602 21.2899 7.24602C21.29 7.24602 21.29 7.24602 21.29 7.24602C21.29 7.24602 21.29 7.24602 21.29 7.24602C21.29 7.24602 21.2901 7.24602 21.2901 7.24602C21.2901 7.24602 21.2901 7.24602 21.2901 7.24602C21.2901 7.24602 21.2901 7.24602 21.2901 7.24602C21.2902 7.24602 21.2902 7.24602 21.2902 7.24602C21.2902 7.24602 21.2902 7.24602 21.2902 7.24602C21.2902 7.24602 21.2903 7.24602 21.2903 7.24602C21.2903 7.24602 21.2903 7.24602 21.2903 7.24602C21.2903 7.24602 21.2903 7.24602 21.2904 7.24602C21.2904 7.24602 21.2904 7.24602 21.2904 7.24602C21.2904 7.24602 21.2904 7.24602 21.2904 7.24602C21.2904 7.24602 21.2905 7.24602 21.2905 7.24602C21.2905 7.24602 21.2905 7.24602 21.2905 7.24602C21.2905 7.24602 21.2905 7.24602 21.2906 7.24602C21.2906 7.24602 21.2906 7.24602 21.2906 7.24602C21.2906 7.24602 21.2906 7.24602 21.2906 7.24602C21.2907 7.24602 21.2907 7.24602 21.2907 7.24602C21.2907 7.24602 21.2907 7.24602 21.2907 7.24602C21.2907 7.24602 21.2907 7.24602 21.2908 7.24602C21.2908 7.24602 21.2908 7.24602 21.2908 7.24602C21.2908 7.24602 21.2908 7.24602 21.2908 7.24602C21.2909 7.24602 21.2909 7.24602 21.2909 7.24602C21.2909 7.24602 21.2909 7.24602 21.2909 7.24602C21.2909 7.24602 21.291 7.24602 21.291 7.24602C21.291 7.24602 21.291 7.24602 21.291 7.24602C21.291 7.24602 21.291 7.24602 21.291 7.24602C21.2911 7.24602 21.2911 7.24602 21.2911 7.24602C21.2911 7.24602 21.2911 7.24602 21.2911 7.24602C21.2911 7.24602 21.2912 7.24602 21.2912 7.24602C21.2912 7.24602 21.2912 7.24602 21.2912 7.24602C21.2912 7.24602 21.2912 7.24602 21.2913 7.24602C21.2913 7.24602 21.2913 7.24602 21.2913 7.24602C21.2913 7.24602 21.2913 7.24602 21.2913 7.24602C21.2914 7.24602 21.2914 7.24602 21.2914 7.24602C21.2914 7.24602 21.2914 7.24602 21.2914 7.24602C21.2914 7.24602 21.2914 7.24602 21.2915 7.24602C21.2915 7.24602 21.2915 7.24602 21.2915 7.24602C21.2915 7.24602 21.2915 7.24602 21.2915 7.24602C21.2916 7.24602 21.2916 7.24602 21.2916 7.24602C21.2916 7.24602 21.2916 7.24602 21.2916 7.24602C21.2916 7.24602 21.2917 7.24602 21.2917 7.24602C21.2917 7.24602 21.2917 7.24602 21.2917 7.24602C21.2917 7.24602 21.2917 7.24602 21.2917 7.24602C21.2918 7.24602 21.2918 7.24602 21.2918 7.24602C21.2918 7.24602 21.2918 7.24602 21.2918 7.24602C21.2918 7.24602 21.2919 7.24602 21.2919 7.24602C21.2919 7.24602 21.2919 7.24602 21.2919 7.24602C21.2919 7.24602 21.2919 7.24602 21.292 7.24602C21.292 7.24602 21.292 7.24602 21.292 7.24602C21.292 7.24602 21.292 7.24602 21.292 7.24602C21.292 7.24602 21.2921 7.24602 21.2921 7.24602C21.2921 7.24602 21.2921 7.24602 21.2921 7.24602C21.2921 7.24602 21.2921 7.24602 21.2922 7.24602C21.2922 7.24602 21.2922 7.24602 21.2922 7.24602C21.2922 7.24602 21.2922 7.24602 21.2922 7.24602C21.2923 7.24602 21.2923 7.24602 21.2923 7.24602C21.2923 7.24602 21.2923 7.24602 21.2923 7.24602C21.2923 7.24602 21.2923 7.24602 21.2924 7.24602C21.2924 7.24602 21.2924 7.24602 21.2924 7.24602C21.2924 7.24602 21.2924 7.24602 21.2924 7.24602C21.2925 7.24602 21.2925 7.24602 21.2925 7.24602C21.2925 7.24602 21.2925 7.24602 21.2925 7.24602C21.2925 7.24602 21.2926 7.24602 21.2926 7.24602C21.2926 7.24602 21.2926 7.24602 21.2926 7.24602C21.2926 7.24602 21.2926 7.24602 21.2926 7.24602C21.2927 7.24602 21.2927 7.24602 21.2927 7.24602C21.2927 7.24602 21.2927 7.24602 21.2927 7.24602C21.2927 7.24602 21.2928 7.24602 21.2928 7.24602C21.2928 7.24602 21.2928 7.24602 21.2928 7.24602C21.2928 7.24602 21.2928 7.24602 21.2929 7.24602C21.2929 7.24602 21.2929 7.24602 21.2929 7.24602C21.2929 7.24602 21.2929 7.24602 21.2929 7.24602C21.293 7.24602 21.293 7.24602 21.293 7.24602C21.293 7.24602 21.293 7.24602 21.293 7.24602C21.293 7.24602 21.293 7.24602 21.2931 7.24602C21.2931 7.24602 21.2931 7.24602 21.2931 7.24602C21.2931 7.24602 21.2931 7.24602 21.2931 7.24602C21.2932 7.24602 21.2932 7.24602 21.2932 7.24602C21.2932 7.24602 21.2932 7.24602 21.2932 7.24602C21.2932 7.24602 21.2933 7.24602 21.2933 7.24602C21.2933 7.24602 21.2933 7.24602 21.2933 7.24602C21.2933 7.24602 21.2933 7.24602 21.2933 7.24602C21.2934 7.24602 21.2934 7.24602 21.2934 7.24602C21.2934 7.24602 21.2934 7.24602 21.2934 7.24602C21.2934 7.24602 21.2935 7.24602 21.2935 7.24602C21.2935 7.24602 21.2935 7.24602 21.2935 7.24602C21.2935 7.24602 21.2935 7.24602 21.2936 7.24602C21.2936 7.24602 21.2936 7.24602 21.2936 7.24602C21.2936 7.24602 21.2936 7.24602 21.2936 7.24602C21.2936 7.24602 21.2937 7.24602 21.2937 7.24602C21.2937 7.24602 21.2937 7.24602 21.2937 7.24602C21.2937 7.24602 21.2937 7.24602 21.2938 7.24602C21.2938 7.24602 21.2938 7.24602 21.2938 7.24602C21.2938 7.24602 21.2938 7.24602 21.2938 7.24602C21.2939 7.24602 21.2939 7.24602 21.2939 7.24602C21.2939 7.24602 21.2939 7.24602 21.2939 7.24602C21.2939 7.24602 21.2939 7.24602 21.294 7.24602C21.294 7.24602 21.294 7.24602 21.294 7.24602C21.294 7.24602 21.294 7.24602 21.294 7.24602C21.2941 7.24602 21.2941 7.24602 21.2941 7.24602C21.2941 7.24602 21.2941 7.24602 21.2941 7.24602C21.2941 7.24602 21.2942 7.24602 21.2942 7.24602C21.2942 7.24602 21.2942 7.24602 21.2942 7.24602C21.2942 7.24602 21.2942 7.24602 21.2942 7.24602C21.2943 7.24602 21.2943 7.24602 21.2943 7.24602C21.2943 7.24602 21.2943 7.24602 21.2943 7.24602C21.2943 7.24602 21.2944 7.24602 21.2944 7.24602C21.2944 7.24602 21.2944 7.24602 21.2944 7.24602C21.2944 7.24602 21.2944 7.24602 21.2945 7.24602C21.2945 7.24602 21.2945 7.24602 21.2945 7.24602C21.2945 7.24602 21.2945 7.24602 21.2945 7.24602C21.2946 7.24602 21.2946 7.24602 21.2946 7.24602C21.2946 7.24602 21.2946 7.24602 21.2946 7.24602C21.2946 7.24602 21.2946 7.24602 21.2947 7.24602C21.2947 7.24602 21.2947 7.24602 21.2947 7.24602C21.2947 7.24602 21.2947 7.24602 21.2947 7.24602C21.2948 7.24602 21.2948 7.24602 21.2948 7.24602C21.2948 7.24602 21.2948 7.24602 21.2948 7.24602C21.2948 7.24602 21.2949 7.24602 21.2949 7.24602C21.2949 7.24602 21.2949 7.24602 21.2949 7.24602C21.2949 7.24602 21.2949 7.24602 21.2949 7.24602C21.295 7.24602 21.295 7.24602 21.295 7.24602C21.295 7.24602 21.295 7.24602 21.295 7.24602C21.295 7.24602 21.2951 7.24602 21.2951 7.24602C21.2951 7.24602 21.2951 7.24602 21.2951 7.24602C21.2951 7.24602 21.2951 7.24602 21.2952 7.24602C21.2952 7.24602 21.2952 7.24602 21.2952 7.24602C21.2952 7.24602 21.2952 7.24602 21.2952 7.24602C21.2952 7.24602 21.2953 7.24602 21.2953 7.24602C21.2953 7.24602 21.2953 7.24602 21.2953 7.24602C21.2953 7.24602 21.2953 7.24602 21.2954 7.24602C21.2954 7.24602 21.2954 7.24602 21.2954 7.24602C21.2954 7.24602 21.2954 7.24602 21.2954 7.24602C21.2955 7.24602 21.2955 7.24602 21.2955 7.24602C21.2955 7.24602 21.2955 7.24602 21.2955 7.24602C21.2955 7.24602 21.2955 7.24602 21.2956 7.24602C21.2956 7.24602 21.2956 7.24602 21.2956 7.24602C21.2956 7.24602 21.2956 7.24602 21.2956 7.24602C21.2957 7.24602 21.2957 7.24602 21.2957 7.24602C21.2957 7.24602 21.2957 7.24602 21.2957 7.24602C21.2957 7.24602 21.2958 7.24602 21.2958 7.24602C21.2958 7.24602 21.2958 7.24602 21.2958 7.24602C21.2958 7.24602 21.2958 7.24602 21.2958 7.24602C21.2959 7.24602 21.2959 7.24602 21.2959 7.24602C21.2959 7.24602 21.2959 7.24602 21.2959 7.24602C21.2959 7.24602 21.296 7.24602 21.296 7.24602C21.296 7.24602 21.296 7.24602 21.296 7.24602C21.296 7.24602 21.296 7.24602 21.2961 7.24602C21.2961 7.24602 21.2961 7.24602 21.2961 7.24602C21.2961 7.24602 21.2961 7.24602 21.2961 7.24602C21.2961 7.24602 21.2962 7.24602 21.2962 7.24602C21.2962 7.24602 21.2962 7.24602 21.2962 7.24602C21.2962 7.24602 21.2962 7.24602 21.2963 7.24602C21.2963 7.24602 21.2963 7.24602 21.2963 7.24602C21.2963 7.24602 21.2963 7.24602 21.2963 7.24602C21.2964 7.24602 21.2964 7.24602 21.2964 7.24602C21.2964 7.24602 21.2964 7.24602 21.2964 7.24602C21.2964 7.24602 21.2964 7.24602 21.2965 7.24602C21.2965 7.24602 21.2965 7.24602 21.2965 7.24602C21.2965 7.24602 21.2965 7.24602 21.2965 7.24602C21.2966 7.24602 21.2966 7.24602 21.2966 7.24602C21.2966 7.24602 21.2966 7.24602 21.2966 7.24602C21.2966 7.24602 21.2967 7.24602 21.2967 7.24602C21.2967 7.24602 21.2967 7.24602 21.2967 7.24602C21.2967 7.24602 21.2967 7.24602 21.2967 7.24602C21.2968 7.24602 21.2968 7.24602 21.2968 7.24602C21.2968 7.24602 21.2968 7.24602 21.2968 7.24602C21.2968 7.24602 21.2969 7.24602 21.2969 7.24602C21.2969 7.24602 21.2969 7.24602 21.2969 7.24602C21.2969 7.24602 21.2969 7.24602 21.297 7.24602C21.297 7.24602 21.297 7.24602 21.297 7.24602C21.297 7.24602 21.297 7.24602 21.297 7.24602C21.297 7.24602 21.2971 7.24602 21.2971 7.24602C21.2971 7.24602 21.2971 7.24602 21.2971 7.24602C21.2971 7.24602 21.2971 7.24602 21.2972 7.24602C21.2972 7.24602 21.2972 7.24602 21.2972 7.24602C21.2972 7.24602 21.2972 7.24602 21.2972 7.24602C21.2973 7.24602 21.2973 7.24602 21.2973 7.24602C21.2973 7.24602 21.2973 7.24602 21.2973 7.24602C21.2973 7.24602 21.2973 7.24602 21.2974 7.24602C21.2974 7.24602 21.2974 7.24602 21.2974 7.24602C21.2974 7.24602 21.2974 7.24602 21.2974 7.24602C21.2975 7.24602 21.2975 7.24602 21.2975 7.24602C21.2975 7.24602 21.2975 7.24602 21.2975 7.24602C21.2975 7.24602 21.2976 7.24602 21.2976 7.24602C21.2976 7.24602 21.2976 7.24602 21.2976 7.24602C21.2976 7.24602 21.2976 7.24602 21.2976 7.24602C21.2977 7.24602 21.2977 7.24602 21.2977 7.24602C21.2977 7.24602 21.2977 7.24602 21.2977 7.24602C21.2977 7.24602 21.2978 7.24602 21.2978 7.24602C21.2978 7.24602 21.2978 7.24602 21.2978 7.24602C21.2978 7.24602 21.2978 7.24602 21.2979 7.24602C21.2979 7.24602 21.2979 7.24602 21.2979 7.24602C21.2979 7.24602 21.2979 7.24602 21.2979 7.24602C21.298 7.24602 21.298 7.24602 21.298 7.24602V6.64602C21.298 6.64602 21.298 6.64602 21.2979 6.64602C21.2979 6.64602 21.2979 6.64602 21.2979 6.64602C21.2979 6.64602 21.2979 6.64602 21.2979 6.64602C21.2978 6.64602 21.2978 6.64602 21.2978 6.64602C21.2978 6.64602 21.2978 6.64602 21.2978 6.64602C21.2978 6.64602 21.2977 6.64602 21.2977 6.64602C21.2977 6.64602 21.2977 6.64602 21.2977 6.64602C21.2977 6.64602 21.2977 6.64602 21.2976 6.64602C21.2976 6.64602 21.2976 6.64602 21.2976 6.64602C21.2976 6.64602 21.2976 6.64602 21.2976 6.64602C21.2976 6.64602 21.2975 6.64602 21.2975 6.64602C21.2975 6.64602 21.2975 6.64602 21.2975 6.64602C21.2975 6.64602 21.2975 6.64602 21.2974 6.64602C21.2974 6.64602 21.2974 6.64602 21.2974 6.64602C21.2974 6.64602 21.2974 6.64602 21.2974 6.64602C21.2973 6.64602 21.2973 6.64602 21.2973 6.64602C21.2973 6.64602 21.2973 6.64602 21.2973 6.64602C21.2973 6.64602 21.2973 6.64602 21.2972 6.64602C21.2972 6.64602 21.2972 6.64602 21.2972 6.64602C21.2972 6.64602 21.2972 6.64602 21.2972 6.64602C21.2971 6.64602 21.2971 6.64602 21.2971 6.64602C21.2971 6.64602 21.2971 6.64602 21.2971 6.64602C21.2971 6.64602 21.297 6.64602 21.297 6.64602C21.297 6.64602 21.297 6.64602 21.297 6.64602C21.297 6.64602 21.297 6.64602 21.297 6.64602C21.2969 6.64602 21.2969 6.64602 21.2969 6.64602C21.2969 6.64602 21.2969 6.64602 21.2969 6.64602C21.2969 6.64602 21.2968 6.64602 21.2968 6.64602C21.2968 6.64602 21.2968 6.64602 21.2968 6.64602C21.2968 6.64602 21.2968 6.64602 21.2967 6.64602C21.2967 6.64602 21.2967 6.64602 21.2967 6.64602C21.2967 6.64602 21.2967 6.64602 21.2967 6.64602C21.2967 6.64602 21.2966 6.64602 21.2966 6.64602C21.2966 6.64602 21.2966 6.64602 21.2966 6.64602C21.2966 6.64602 21.2966 6.64602 21.2965 6.64602C21.2965 6.64602 21.2965 6.64602 21.2965 6.64602C21.2965 6.64602 21.2965 6.64602 21.2965 6.64602C21.2964 6.64602 21.2964 6.64602 21.2964 6.64602C21.2964 6.64602 21.2964 6.64602 21.2964 6.64602C21.2964 6.64602 21.2964 6.64602 21.2963 6.64602C21.2963 6.64602 21.2963 6.64602 21.2963 6.64602C21.2963 6.64602 21.2963 6.64602 21.2963 6.64602C21.2962 6.64602 21.2962 6.64602 21.2962 6.64602C21.2962 6.64602 21.2962 6.64602 21.2962 6.64602C21.2962 6.64602 21.2961 6.64602 21.2961 6.64602C21.2961 6.64602 21.2961 6.64602 21.2961 6.64602C21.2961 6.64602 21.2961 6.64602 21.2961 6.64602C21.296 6.64602 21.296 6.64602 21.296 6.64602C21.296 6.64602 21.296 6.64602 21.296 6.64602C21.296 6.64602 21.2959 6.64602 21.2959 6.64602C21.2959 6.64602 21.2959 6.64602 21.2959 6.64602C21.2959 6.64602 21.2959 6.64602 21.2958 6.64602C21.2958 6.64602 21.2958 6.64602 21.2958 6.64602C21.2958 6.64602 21.2958 6.64602 21.2958 6.64602C21.2958 6.64602 21.2957 6.64602 21.2957 6.64602C21.2957 6.64602 21.2957 6.64602 21.2957 6.64602C21.2957 6.64602 21.2957 6.64602 21.2956 6.64602C21.2956 6.64602 21.2956 6.64602 21.2956 6.64602C21.2956 6.64602 21.2956 6.64602 21.2956 6.64602C21.2955 6.64602 21.2955 6.64602 21.2955 6.64602C21.2955 6.64602 21.2955 6.64602 21.2955 6.64602C21.2955 6.64602 21.2955 6.64602 21.2954 6.64602C21.2954 6.64602 21.2954 6.64602 21.2954 6.64602C21.2954 6.64602 21.2954 6.64602 21.2954 6.64602C21.2953 6.64602 21.2953 6.64602 21.2953 6.64602C21.2953 6.64602 21.2953 6.64602 21.2953 6.64602C21.2953 6.64602 21.2952 6.64602 21.2952 6.64602C21.2952 6.64602 21.2952 6.64602 21.2952 6.64602C21.2952 6.64602 21.2952 6.64602 21.2952 6.64602C21.2951 6.64602 21.2951 6.64602 21.2951 6.64602C21.2951 6.64602 21.2951 6.64602 21.2951 6.64602C21.2951 6.64602 21.295 6.64602 21.295 6.64602C21.295 6.64602 21.295 6.64602 21.295 6.64602C21.295 6.64602 21.295 6.64602 21.2949 6.64602C21.2949 6.64602 21.2949 6.64602 21.2949 6.64602C21.2949 6.64602 21.2949 6.64602 21.2949 6.64602C21.2949 6.64602 21.2948 6.64602 21.2948 6.64602C21.2948 6.64602 21.2948 6.64602 21.2948 6.64602C21.2948 6.64602 21.2948 6.64602 21.2947 6.64602C21.2947 6.64602 21.2947 6.64602 21.2947 6.64602C21.2947 6.64602 21.2947 6.64602 21.2947 6.64602C21.2946 6.64602 21.2946 6.64602 21.2946 6.64602C21.2946 6.64602 21.2946 6.64602 21.2946 6.64602C21.2946 6.64602 21.2946 6.64602 21.2945 6.64602C21.2945 6.64602 21.2945 6.64602 21.2945 6.64602C21.2945 6.64602 21.2945 6.64602 21.2945 6.64602C21.2944 6.64602 21.2944 6.64602 21.2944 6.64602C21.2944 6.64602 21.2944 6.64602 21.2944 6.64602C21.2944 6.64602 21.2943 6.64602 21.2943 6.64602C21.2943 6.64602 21.2943 6.64602 21.2943 6.64602C21.2943 6.64602 21.2943 6.64602 21.2942 6.64602C21.2942 6.64602 21.2942 6.64602 21.2942 6.64602C21.2942 6.64602 21.2942 6.64602 21.2942 6.64602C21.2942 6.64602 21.2941 6.64602 21.2941 6.64602C21.2941 6.64602 21.2941 6.64602 21.2941 6.64602C21.2941 6.64602 21.2941 6.64602 21.294 6.64602C21.294 6.64602 21.294 6.64602 21.294 6.64602C21.294 6.64602 21.294 6.64602 21.294 6.64602C21.2939 6.64602 21.2939 6.64602 21.2939 6.64602C21.2939 6.64602 21.2939 6.64602 21.2939 6.64602C21.2939 6.64602 21.2939 6.64602 21.2938 6.64602C21.2938 6.64602 21.2938 6.64602 21.2938 6.64602C21.2938 6.64602 21.2938 6.64602 21.2938 6.64602C21.2937 6.64602 21.2937 6.64602 21.2937 6.64602C21.2937 6.64602 21.2937 6.64602 21.2937 6.64602C21.2937 6.64602 21.2936 6.64602 21.2936 6.64602C21.2936 6.64602 21.2936 6.64602 21.2936 6.64602C21.2936 6.64602 21.2936 6.64602 21.2936 6.64602C21.2935 6.64602 21.2935 6.64602 21.2935 6.64602C21.2935 6.64602 21.2935 6.64602 21.2935 6.64602C21.2935 6.64602 21.2934 6.64602 21.2934 6.64602C21.2934 6.64602 21.2934 6.64602 21.2934 6.64602C21.2934 6.64602 21.2934 6.64602 21.2933 6.64602C21.2933 6.64602 21.2933 6.64602 21.2933 6.64602C21.2933 6.64602 21.2933 6.64602 21.2933 6.64602C21.2933 6.64602 21.2932 6.64602 21.2932 6.64602C21.2932 6.64602 21.2932 6.64602 21.2932 6.64602C21.2932 6.64602 21.2932 6.64602 21.2931 6.64602C21.2931 6.64602 21.2931 6.64602 21.2931 6.64602C21.2931 6.64602 21.2931 6.64602 21.2931 6.64602C21.293 6.64602 21.293 6.64602 21.293 6.64602C21.293 6.64602 21.293 6.64602 21.293 6.64602C21.293 6.64602 21.293 6.64602 21.2929 6.64602C21.2929 6.64602 21.2929 6.64602 21.2929 6.64602C21.2929 6.64602 21.2929 6.64602 21.2929 6.64602C21.2928 6.64602 21.2928 6.64602 21.2928 6.64602C21.2928 6.64602 21.2928 6.64602 21.2928 6.64602C21.2928 6.64602 21.2927 6.64602 21.2927 6.64602C21.2927 6.64602 21.2927 6.64602 21.2927 6.64602C21.2927 6.64602 21.2927 6.64602 21.2926 6.64602C21.2926 6.64602 21.2926 6.64602 21.2926 6.64602C21.2926 6.64602 21.2926 6.64602 21.2926 6.64602C21.2926 6.64602 21.2925 6.64602 21.2925 6.64602C21.2925 6.64602 21.2925 6.64602 21.2925 6.64602C21.2925 6.64602 21.2925 6.64602 21.2924 6.64602C21.2924 6.64602 21.2924 6.64602 21.2924 6.64602C21.2924 6.64602 21.2924 6.64602 21.2924 6.64602C21.2923 6.64602 21.2923 6.64602 21.2923 6.64602C21.2923 6.64602 21.2923 6.64602 21.2923 6.64602C21.2923 6.64602 21.2923 6.64602 21.2922 6.64602C21.2922 6.64602 21.2922 6.64602 21.2922 6.64602C21.2922 6.64602 21.2922 6.64602 21.2922 6.64602C21.2921 6.64602 21.2921 6.64602 21.2921 6.64602C21.2921 6.64602 21.2921 6.64602 21.2921 6.64602C21.2921 6.64602 21.292 6.64602 21.292 6.64602C21.292 6.64602 21.292 6.64602 21.292 6.64602C21.292 6.64602 21.292 6.64602 21.292 6.64602C21.2919 6.64602 21.2919 6.64602 21.2919 6.64602C21.2919 6.64602 21.2919 6.64602 21.2919 6.64602C21.2919 6.64602 21.2918 6.64602 21.2918 6.64602C21.2918 6.64602 21.2918 6.64602 21.2918 6.64602C21.2918 6.64602 21.2918 6.64602 21.2917 6.64602C21.2917 6.64602 21.2917 6.64602 21.2917 6.64602C21.2917 6.64602 21.2917 6.64602 21.2917 6.64602C21.2917 6.64602 21.2916 6.64602 21.2916 6.64602C21.2916 6.64602 21.2916 6.64602 21.2916 6.64602C21.2916 6.64602 21.2916 6.64602 21.2915 6.64602C21.2915 6.64602 21.2915 6.64602 21.2915 6.64602C21.2915 6.64602 21.2915 6.64602 21.2915 6.64602C21.2914 6.64602 21.2914 6.64602 21.2914 6.64602C21.2914 6.64602 21.2914 6.64602 21.2914 6.64602C21.2914 6.64602 21.2914 6.64602 21.2913 6.64602C21.2913 6.64602 21.2913 6.64602 21.2913 6.64602C21.2913 6.64602 21.2913 6.64602 21.2913 6.64602C21.2912 6.64602 21.2912 6.64602 21.2912 6.64602C21.2912 6.64602 21.2912 6.64602 21.2912 6.64602C21.2912 6.64602 21.2911 6.64602 21.2911 6.64602C21.2911 6.64602 21.2911 6.64602 21.2911 6.64602C21.2911 6.64602 21.2911 6.64602 21.291 6.64602C21.291 6.64602 21.291 6.64602 21.291 6.64602C21.291 6.64602 21.291 6.64602 21.291 6.64602C21.291 6.64602 21.2909 6.64602 21.2909 6.64602C21.2909 6.64602 21.2909 6.64602 21.2909 6.64602C21.2909 6.64602 21.2909 6.64602 21.2908 6.64602C21.2908 6.64602 21.2908 6.64602 21.2908 6.64602C21.2908 6.64602 21.2908 6.64602 21.2908 6.64602C21.2907 6.64602 21.2907 6.64602 21.2907 6.64602C21.2907 6.64602 21.2907 6.64602 21.2907 6.64602C21.2907 6.64602 21.2907 6.64602 21.2906 6.64602C21.2906 6.64602 21.2906 6.64602 21.2906 6.64602C21.2906 6.64602 21.2906 6.64602 21.2906 6.64602C21.2905 6.64602 21.2905 6.64602 21.2905 6.64602C21.2905 6.64602 21.2905 6.64602 21.2905 6.64602C21.2905 6.64602 21.2904 6.64602 21.2904 6.64602C21.2904 6.64602 21.2904 6.64602 21.2904 6.64602C21.2904 6.64602 21.2904 6.64602 21.2904 6.64602C21.2903 6.64602 21.2903 6.64602 21.2903 6.64602C21.2903 6.64602 21.2903 6.64602 21.2903 6.64602C21.2903 6.64602 21.2902 6.64602 21.2902 6.64602C21.2902 6.64602 21.2902 6.64602 21.2902 6.64602C21.2902 6.64602 21.2902 6.64602 21.2901 6.64602C21.2901 6.64602 21.2901 6.64602 21.2901 6.64602C21.2901 6.64602 21.2901 6.64602 21.2901 6.64602C21.2901 6.64602 21.29 6.64602 21.29 6.64602C21.29 6.64602 21.29 6.64602 21.29 6.64602C21.29 6.64602 21.29 6.64602 21.2899 6.64602C21.2899 6.64602 21.2899 6.64602 21.2899 6.64602C21.2899 6.64602 21.2899 6.64602 21.2899 6.64602C21.2898 6.64602 21.2898 6.64602 21.2898 6.64602C21.2898 6.64602 21.2898 6.64602 21.2898 6.64602C21.2898 6.64602 21.2897 6.64602 21.2897 6.64602C21.2897 6.64602 21.2897 6.64602 21.2897 6.64602C21.2897 6.64602 21.2897 6.64602 21.2897 6.64602C21.2896 6.64602 21.2896 6.64602 21.2896 6.64602C21.2896 6.64602 21.2896 6.64602 21.2896 6.64602C21.2896 6.64602 21.2895 6.64602 21.2895 6.64602C21.2895 6.64602 21.2895 6.64602 21.2895 6.64602C21.2895 6.64602 21.2895 6.64602 21.2894 6.64602C21.2894 6.64602 21.2894 6.64602 21.2894 6.64602C21.2894 6.64602 21.2894 6.64602 21.2894 6.64602C21.2894 6.64602 21.2893 6.64602 21.2893 6.64602C21.2893 6.64602 21.2893 6.64602 21.2893 6.64602C21.2893 6.64602 21.2893 6.64602 21.2892 6.64602C21.2892 6.64602 21.2892 6.64602 21.2892 6.64602C21.2892 6.64602 21.2892 6.64602 21.2892 6.64602C21.2891 6.64602 21.2891 6.64602 21.2891 6.64602C21.2891 6.64602 21.2891 6.64602 21.2891 6.64602C21.2891 6.64602 21.2891 6.64602 21.289 6.64602C21.289 6.64602 21.289 6.64602 21.289 6.64602C21.289 6.64602 21.289 6.64602 21.289 6.64602C21.2889 6.64602 21.2889 6.64602 21.2889 6.64602C21.2889 6.64602 21.2889 6.64602 21.2889 6.64602C21.2889 6.64602 21.2888 6.64602 21.2888 6.64602C21.2888 6.64602 21.2888 6.64602 21.2888 6.64602C21.2888 6.64602 21.2888 6.64602 21.2888 6.64602C21.2887 6.64602 21.2887 6.64602 21.2887 6.64602C21.2887 6.64602 21.2887 6.64602 21.2887 6.64602C21.2887 6.64602 21.2886 6.64602 21.2886 6.64602C21.2886 6.64602 21.2886 6.64602 21.2886 6.64602C21.2886 6.64602 21.2886 6.64602 21.2885 6.64602C21.2885 6.64602 21.2885 6.64602 21.2885 6.64602C21.2885 6.64602 21.2885 6.64602 21.2885 6.64602C21.2884 6.64602 21.2884 6.64602 21.2884 6.64602C21.2884 6.64602 21.2884 6.64602 21.2884 6.64602C21.2884 6.64602 21.2884 6.64602 21.2883 6.64602C21.2883 6.64602 21.2883 6.64602 21.2883 6.64602C21.2883 6.64602 21.2883 6.64602 21.2883 6.64602C21.2882 6.64602 21.2882 6.64602 21.2882 6.64602C21.2882 6.64602 21.2882 6.64602 21.2882 6.64602C21.2882 6.64602 21.2881 6.64602 21.2881 6.64602C21.2881 6.64602 21.2881 6.64602 21.2881 6.64602C21.2881 6.64602 21.2881 6.64602 21.2881 6.64602C21.288 6.64602 21.288 6.64602 21.288 6.64602C21.288 6.64602 21.288 6.64602 21.288 6.64602C21.288 6.64602 21.2879 6.64602 21.2879 6.64602C21.2879 6.64602 21.2879 6.64602 21.2879 6.64602C21.2879 6.64602 21.2879 6.64602 21.2878 6.64602C21.2878 6.64602 21.2878 6.64602 21.2878 6.64602C21.2878 6.64602 21.2878 6.64602 21.2878 6.64602C21.2878 6.64602 21.2877 6.64602 21.2877 6.64602C21.2877 6.64602 21.2877 6.64602 21.2877 6.64602C21.2877 6.64602 21.2877 6.64602 21.2876 6.64602C21.2876 6.64602 21.2876 6.64602 21.2876 6.64602C21.2876 6.64602 21.2876 6.64602 21.2876 6.64602C21.2875 6.64602 21.2875 6.64602 21.2875 6.64602C21.2875 6.64602 21.2875 6.64602 21.2875 6.64602C21.2875 6.64602 21.2875 6.64602 21.2874 6.64602C21.2874 6.64602 21.2874 6.64602 21.2874 6.64602C21.2874 6.64602 21.2874 6.64602 21.2874 6.64602C21.2873 6.64602 21.2873 6.64602 21.2873 6.64602C21.2873 6.64602 21.2873 6.64602 21.2873 6.64602C21.2873 6.64602 21.2872 6.64602 21.2872 6.64602C21.2872 6.64602 21.2872 6.64602 21.2872 6.64602C21.2872 6.64602 21.2872 6.64602 21.2871 6.64602C21.2871 6.64602 21.2871 6.64602 21.2871 6.64602C21.2871 6.64602 21.2871 6.64602 21.2871 6.64602C21.2871 6.64602 21.287 6.64602 21.287 6.64602C21.287 6.64602 21.287 6.64602 21.287 6.64602C21.287 6.64602 21.287 6.64602 21.2869 6.64602C21.2869 6.64602 21.2869 6.64602 21.2869 6.64602C21.2869 6.64602 21.2869 6.64602 21.2869 6.64602C21.2868 6.64602 21.2868 6.64602 21.2868 6.64602C21.2868 6.64602 21.2868 6.64602 21.2868 6.64602C21.2868 6.64602 21.2868 6.64602 21.2867 6.64602C21.2867 6.64602 21.2867 6.64602 21.2867 6.64602C21.2867 6.64602 21.2867 6.64602 21.2867 6.64602C21.2866 6.64602 21.2866 6.64602 21.2866 6.64602C21.2866 6.64602 21.2866 6.64602 21.2866 6.64602C21.2866 6.64602 21.2865 6.64602 21.2865 6.64602C21.2865 6.64602 21.2865 6.64602 21.2865 6.64602C21.2865 6.64602 21.2865 6.64602 21.2865 6.64602C21.2864 6.64602 21.2864 6.64602 21.2864 6.64602C21.2864 6.64602 21.2864 6.64602 21.2864 6.64602C21.2864 6.64602 21.2863 6.64602 21.2863 6.64602C21.2863 6.64602 21.2863 6.64602 21.2863 6.64602C21.2863 6.64602 21.2863 6.64602 21.2862 6.64602C21.2862 6.64602 21.2862 6.64602 21.2862 6.64602C21.2862 6.64602 21.2862 6.64602 21.2862 6.64602C21.2861 6.64602 21.2861 6.64602 21.2861 6.64602C21.2861 6.64602 21.2861 6.64602 21.2861 6.64602C21.2861 6.64602 21.2861 6.64602 21.286 6.64602C21.286 6.64602 21.286 6.64602 21.286 6.64602C21.286 6.64602 21.286 6.64602 21.286 6.64602C21.2859 6.64602 21.2859 6.64602 21.2859 6.64602C21.2859 6.64602 21.2859 6.64602 21.2859 6.64602C21.2859 6.64602 21.2858 6.64602 21.2858 6.64602C21.2858 6.64602 21.2858 6.64602 21.2858 6.64602C21.2858 6.64602 21.2858 6.64602 21.2858 6.64602C21.2857 6.64602 21.2857 6.64602 21.2857 6.64602C21.2857 6.64602 21.2857 6.64602 21.2857 6.64602C21.2857 6.64602 21.2856 6.64602 21.2856 6.64602C21.2856 6.64602 21.2856 6.64602 21.2856 6.64602C21.2856 6.64602 21.2856 6.64602 21.2855 6.64602C21.2855 6.64602 21.2855 6.64602 21.2855 6.64602C21.2855 6.64602 21.2855 6.64602 21.2855 6.64602C21.2855 6.64602 21.2854 6.64602 21.2854 6.64602C21.2854 6.64602 21.2854 6.64602 21.2854 6.64602C21.2854 6.64602 21.2854 6.64602 21.2853 6.64602C21.2853 6.64602 21.2853 6.64602 21.2853 6.64602C21.2853 6.64602 21.2853 6.64602 21.2853 6.64602C21.2852 6.64602 21.2852 6.64602 21.2852 6.64602C21.2852 6.64602 21.2852 6.64602 21.2852 6.64602C21.2852 6.64602 21.2852 6.64602 21.2851 6.64602C21.2851 6.64602 21.2851 6.64602 21.2851 6.64602C21.2851 6.64602 21.2851 6.64602 21.2851 6.64602C21.285 6.64602 21.285 6.64602 21.285 6.64602C21.285 6.64602 21.285 6.64602 21.285 6.64602C21.285 6.64602 21.2849 6.64602 21.2849 6.64602C21.2849 6.64602 21.2849 6.64602 21.2849 6.64602C21.2849 6.64602 21.2849 6.64602 21.2848 6.64602C21.2848 6.64602 21.2848 6.64602 21.2848 6.64602C21.2848 6.64602 21.2848 6.64602 21.2848 6.64602C21.2848 6.64602 21.2847 6.64602 21.2847 6.64602C21.2847 6.64602 21.2847 6.64602 21.2847 6.64602C21.2847 6.64602 21.2847 6.64602 21.2846 6.64602C21.2846 6.64602 21.2846 6.64602 21.2846 6.64602C21.2846 6.64602 21.2846 6.64602 21.2846 6.64602C21.2845 6.64602 21.2845 6.64602 21.2845 6.64602C21.2845 6.64602 21.2845 6.64602 21.2845 6.64602C21.2845 6.64602 21.2845 6.64602 21.2844 6.64602C21.2844 6.64602 21.2844 6.64602 21.2844 6.64602C21.2844 6.64602 21.2844 6.64602 21.2844 6.64602C21.2843 6.64602 21.2843 6.64602 21.2843 6.64602C21.2843 6.64602 21.2843 6.64602 21.2843 6.64602C21.2843 6.64602 21.2842 6.64602 21.2842 6.64602C21.2842 6.64602 21.2842 6.64602 21.2842 6.64602C21.2842 6.64602 21.2842 6.64602 21.2842 6.64602C21.2841 6.64602 21.2841 6.64602 21.2841 6.64602C21.2841 6.64602 21.2841 6.64602 21.2841 6.64602C21.2841 6.64602 21.284 6.64602 21.284 6.64602C21.284 6.64602 21.284 6.64602 21.284 6.64602C21.284 6.64602 21.284 6.64602 21.2839 6.64602C21.2839 6.64602 21.2839 6.64602 21.2839 6.64602C21.2839 6.64602 21.2839 6.64602 21.2839 6.64602C21.2839 6.64602 21.2838 6.64602 21.2838 6.64602C21.2838 6.64602 21.2838 6.64602 21.2838 6.64602C21.2838 6.64602 21.2838 6.64602 21.2837 6.64602C21.2837 6.64602 21.2837 6.64602 21.2837 6.64602C21.2837 6.64602 21.2837 6.64602 21.2837 6.64602C21.2836 6.64602 21.2836 6.64602 21.2836 6.64602C21.2836 6.64602 21.2836 6.64602 21.2836 6.64602C21.2836 6.64602 21.2835 6.64602 21.2835 6.64602C21.2835 6.64602 21.2835 6.64602 21.2835 6.64602C21.2835 6.64602 21.2835 6.64602 21.2835 6.64602C21.2834 6.64602 21.2834 6.64602 21.2834 6.64602C21.2834 6.64602 21.2834 6.64602 21.2834 6.64602C21.2834 6.64602 21.2833 6.64602 21.2833 6.64602C21.2833 6.64602 21.2833 6.64602 21.2833 6.64602C21.2833 6.64602 21.2833 6.64602 21.2832 6.64602C21.2832 6.64602 21.2832 6.64602 21.2832 6.64602C21.2832 6.64602 21.2832 6.64602 21.2832 6.64602C21.2832 6.64602 21.2831 6.64602 21.2831 6.64602C21.2831 6.64602 21.2831 6.64602 21.2831 6.64602C21.2831 6.64602 21.2831 6.64602 21.283 6.64602C21.283 6.64602 21.283 6.64602 21.283 6.64602C21.283 6.64602 21.283 6.64602 21.283 6.64602C21.2829 6.64602 21.2829 6.64602 21.2829 6.64602C21.2829 6.64602 21.2829 6.64602 21.2829 6.64602C21.2829 6.64602 21.2829 6.64602 21.2828 6.64602C21.2828 6.64602 21.2828 6.64602 21.2828 6.64602C21.2828 6.64602 21.2828 6.64602 21.2828 6.64602C21.2827 6.64602 21.2827 6.64602 21.2827 6.64602C21.2827 6.64602 21.2827 6.64602 21.2827 6.64602C21.2827 6.64602 21.2826 6.64602 21.2826 6.64602C21.2826 6.64602 21.2826 6.64602 21.2826 6.64602C21.2826 6.64602 21.2826 6.64602 21.2826 6.64602C21.2825 6.64602 21.2825 6.64602 21.2825 6.64602C21.2825 6.64602 21.2825 6.64602 21.2825 6.64602C21.2825 6.64602 21.2824 6.64602 21.2824 6.64602C21.2824 6.64602 21.2824 6.64602 21.2824 6.64602C21.2824 6.64602 21.2824 6.64602 21.2823 6.64602C21.2823 6.64602 21.2823 6.64602 21.2823 6.64602C21.2823 6.64602 21.2823 6.64602 21.2823 6.64602C21.2823 6.64602 21.2822 6.64602 21.2822 6.64602C21.2822 6.64602 21.2822 6.64602 21.2822 6.64602C21.2822 6.64602 21.2822 6.64602 21.2821 6.64602C21.2821 6.64602 21.2821 6.64602 21.2821 6.64602C21.2821 6.64602 21.2821 6.64602 21.2821 6.64602C21.282 6.64602 21.282 6.64602 21.282 6.64602C21.282 6.64602 21.282 6.64602 21.282 6.64602C21.282 6.64602 21.2819 6.64602 21.2819 6.64602C21.2819 6.64602 21.2819 6.64602 21.2819 6.64602C21.2819 6.64602 21.2819 6.64602 21.2819 6.64602C21.2818 6.64602 21.2818 6.64602 21.2818 6.64602C21.2818 6.64602 21.2818 6.64602 21.2818 6.64602C21.2818 6.64602 21.2817 6.64602 21.2817 6.64602C21.2817 6.64602 21.2817 6.64602 21.2817 6.64602C21.2817 6.64602 21.2817 6.64602 21.2816 6.64602C21.2816 6.64602 21.2816 6.64602 21.2816 6.64602C21.2816 6.64602 21.2816 6.64602 21.2816 6.64602C21.2816 6.64602 21.2815 6.64602 21.2815 6.64602C21.2815 6.64602 21.2815 6.64602 21.2815 6.64602C21.2815 6.64602 21.2815 6.64602 21.2814 6.64602C21.2814 6.64602 21.2814 6.64602 21.2814 6.64602C21.2814 6.64602 21.2814 6.64602 21.2814 6.64602C21.2813 6.64602 21.2813 6.64602 21.2813 6.64602C21.2813 6.64602 21.2813 6.64602 21.2813 6.64602C21.2813 6.64602 21.2813 6.64602 21.2812 6.64602C21.2812 6.64602 21.2812 6.64602 21.2812 6.64602C21.2812 6.64602 21.2812 6.64602 21.2812 6.64602C21.2811 6.64602 21.2811 6.64602 21.2811 6.64602C21.2811 6.64602 21.2811 6.64602 21.2811 6.64602C21.2811 6.64602 21.281 6.64602 21.281 6.64602C21.281 6.64602 21.281 6.64602 21.281 6.64602C21.281 6.64602 21.281 6.64602 21.281 6.64602C21.2809 6.64602 21.2809 6.64602 21.2809 6.64602C21.2809 6.64602 21.2809 6.64602 21.2809 6.64602C21.2809 6.64602 21.2808 6.64602 21.2808 6.64602C21.2808 6.64602 21.2808 6.64602 21.2808 6.64602C21.2808 6.64602 21.2808 6.64602 21.2807 6.64602C21.2807 6.64602 21.2807 6.64602 21.2807 6.64602C21.2807 6.64602 21.2807 6.64602 21.2807 6.64602C21.2807 6.64602 21.2806 6.64602 21.2806 6.64602C21.2806 6.64602 21.2806 6.64602 21.2806 6.64602C21.2806 6.64602 21.2806 6.64602 21.2805 6.64602C21.2805 6.64602 21.2805 6.64602 21.2805 6.64602C21.2805 6.64602 21.2805 6.64602 21.2805 6.64602C21.2804 6.64602 21.2804 6.64602 21.2804 6.64602C21.2804 6.64602 21.2804 6.64602 21.2804 6.64602C21.2804 6.64602 21.2804 6.64602 21.2803 6.64602C21.2803 6.64602 21.2803 6.64602 21.2803 6.64602C21.2803 6.64602 21.2803 6.64602 21.2803 6.64602C21.2802 6.64602 21.2802 6.64602 21.2802 6.64602C21.2802 6.64602 21.2802 6.64602 21.2802 6.64602C21.2802 6.64602 21.2801 6.64602 21.2801 6.64602C21.2801 6.64602 21.2801 6.64602 21.2801 6.64602C21.2801 6.64602 21.2801 6.64602 21.28 6.64602C21.28 6.64602 21.28 6.64602 21.28 6.64602C21.28 6.64602 21.28 6.64602 21.28 6.64602C21.28 6.64602 21.2799 6.64602 21.2799 6.64602C21.2799 6.64602 21.2799 6.64602 21.2799 6.64602C21.2799 6.64602 21.2799 6.64602 21.2798 6.64602C21.2798 6.64602 21.2798 6.64602 21.2798 6.64602C21.2798 6.64602 21.2798 6.64602 21.2798 6.64602C21.2797 6.64602 21.2797 6.64602 21.2797 6.64602C21.2797 6.64602 21.2797 6.64602 21.2797 6.64602C21.2797 6.64602 21.2797 6.64602 21.2796 6.64602C21.2796 6.64602 21.2796 6.64602 21.2796 6.64602C21.2796 6.64602 21.2796 6.64602 21.2796 6.64602C21.2795 6.64602 21.2795 6.64602 21.2795 6.64602C21.2795 6.64602 21.2795 6.64602 21.2795 6.64602C21.2795 6.64602 21.2794 6.64602 21.2794 6.64602C21.2794 6.64602 21.2794 6.64602 21.2794 6.64602C21.2794 6.64602 21.2794 6.64602 21.2794 6.64602C21.2793 6.64602 21.2793 6.64602 21.2793 6.64602C21.2793 6.64602 21.2793 6.64602 21.2793 6.64602C21.2793 6.64602 21.2792 6.64602 21.2792 6.64602C21.2792 6.64602 21.2792 6.64602 21.2792 6.64602C21.2792 6.64602 21.2792 6.64602 21.2791 6.64602C21.2791 6.64602 21.2791 6.64602 21.2791 6.64602C21.2791 6.64602 21.2791 6.64602 21.2791 6.64602C21.2791 6.64602 21.279 6.64602 21.279 6.64602C21.279 6.64602 21.279 6.64602 21.279 6.64602C21.279 6.64602 21.279 6.64602 21.2789 6.64602C21.2789 6.64602 21.2789 6.64602 21.2789 6.64602C21.2789 6.64602 21.2789 6.64602 21.2789 6.64602C21.2788 6.64602 21.2788 6.64602 21.2788 6.64602C21.2788 6.64602 21.2788 6.64602 21.2788 6.64602C21.2788 6.64602 21.2788 6.64602 21.2787 6.64602C21.2787 6.64602 21.2787 6.64602 21.2787 6.64602C21.2787 6.64602 21.2787 6.64602 21.2787 6.64602C21.2786 6.64602 21.2786 6.64602 21.2786 6.64602C21.2786 6.64602 21.2786 6.64602 21.2786 6.64602C21.2786 6.64602 21.2785 6.64602 21.2785 6.64602C21.2785 6.64602 21.2785 6.64602 21.2785 6.64602C21.2785 6.64602 21.2785 6.64602 21.2785 6.64602C21.2784 6.64602 21.2784 6.64602 21.2784 6.64602C21.2784 6.64602 21.2784 6.64602 21.2784 6.64602C21.2784 6.64602 21.2783 6.64602 21.2783 6.64602C21.2783 6.64602 21.2783 6.64602 21.2783 6.64602C21.2783 6.64602 21.2783 6.64602 21.2782 6.64602C21.2782 6.64602 21.2782 6.64602 21.2782 6.64602C21.2782 6.64602 21.2782 6.64602 21.2782 6.64602C21.2782 6.64602 21.2781 6.64602 21.2781 6.64602C21.2781 6.64602 21.2781 6.64602 21.2781 6.64602C21.2781 6.64602 21.2781 6.64602 21.278 6.64602C21.278 6.64602 21.278 6.64602 21.278 6.64602C21.278 6.64602 21.278 6.64602 21.278 6.64602C21.2779 6.64602 21.2779 6.64602 21.2779 6.64602C21.2779 6.64602 21.2779 6.64602 21.2779 6.64602C21.2779 6.64602 21.2779 6.64602 21.2778 6.64602C21.2778 6.64602 21.2778 6.64602 21.2778 6.64602C21.2778 6.64602 21.2778 6.64602 21.2778 6.64602C21.2777 6.64602 21.2777 6.64602 21.2777 6.64602C21.2777 6.64602 21.2777 6.64602 21.2777 6.64602C21.2777 6.64602 21.2776 6.64602 21.2776 6.64602C21.2776 6.64602 21.2776 6.64602 21.2776 6.64602C21.2776 6.64602 21.2776 6.64602 21.2776 6.64602C21.2775 6.64602 21.2775 6.64602 21.2775 6.64602C21.2775 6.64602 21.2775 6.64602 21.2775 6.64602C21.2775 6.64602 21.2774 6.64602 21.2774 6.64602C21.2774 6.64602 21.2774 6.64602 21.2774 6.64602C21.2774 6.64602 21.2774 6.64602 21.2773 6.64602C21.2773 6.64602 21.2773 6.64602 21.2773 6.64602C21.2773 6.64602 21.2773 6.64602 21.2773 6.64602C21.2773 6.64602 21.2772 6.64602 21.2772 6.64602C21.2772 6.64602 21.2772 6.64602 21.2772 6.64602C21.2772 6.64602 21.2772 6.64602 21.2771 6.64602C21.2771 6.64602 21.2771 6.64602 21.2771 6.64602C21.2771 6.64602 21.2771 6.64602 21.2771 6.64602C21.277 6.64602 21.277 6.64602 21.277 6.64602C21.277 6.64602 21.277 6.64602 21.277 6.64602V7.24602ZM21.1604 7.21261C21.2614 7.26476 21.3726 7.29448 21.4862 7.2997L21.5137 6.70033C21.4865 6.69908 21.4599 6.69196 21.4356 6.67943L21.1604 7.21261ZM21.4972 7.3C21.6449 7.30137 21.79 7.26093 21.9157 7.18318L21.6002 6.67285C21.571 6.69092 21.5372 6.70035 21.5027 6.70003L21.4972 7.3ZM21.9575 7.15204L21.9665 7.14402L21.5674 6.69598L21.5584 6.704L21.9575 7.15204ZM21.9326 7.17013C22.0387 7.09985 22.1265 7.005 22.1884 6.89342L21.6636 6.60261C21.6486 6.62959 21.6273 6.65268 21.6013 6.66987L21.9326 7.17013ZM22.1831 6.90254C22.1682 6.92739 22.1524 6.94464 22.1425 6.95447C22.1376 6.95928 22.1337 6.96273 22.132 6.96426C22.1308 6.96535 22.1293 6.96659 22.1316 6.96466C22.1331 6.96333 22.147 6.9518 22.1616 6.93626C22.1778 6.91908 22.1989 6.89316 22.2165 6.85768L21.6794 6.59036C21.6945 6.55986 21.7123 6.53819 21.7249 6.52489C21.731 6.51842 21.7361 6.51364 21.7391 6.51094C21.7418 6.50843 21.7439 6.50669 21.7431 6.50737C21.7429 6.50754 21.7429 6.50758 21.7425 6.50794C21.7421 6.50821 21.7417 6.50861 21.7411 6.50908C21.74 6.50998 21.7384 6.51139 21.7365 6.51308C21.7327 6.5164 21.7268 6.5217 21.72 6.52845C21.7062 6.54215 21.6867 6.56365 21.6688 6.59349L22.1831 6.90254ZM22.2163 6.85818L23.2163 4.85816L22.6796 4.58984L21.6796 6.58986L22.2163 6.85818ZM23.2158 4.8591C23.4148 4.46461 23.2563 3.98358 22.8619 3.78455L22.5916 4.3202C22.6902 4.36998 22.7298 4.49027 22.6801 4.5889L23.2158 4.8591ZM22.8664 3.7869C22.8643 3.78578 22.8624 3.7848 22.8622 3.7847C22.8615 3.78434 22.8625 3.78484 22.8637 3.78549L22.5843 4.31644C22.5864 4.31756 22.5883 4.31854 22.5885 4.31864C22.5892 4.31901 22.5882 4.3185 22.587 4.31785L22.8664 3.7869Z" fill="#555555" mask="url(#path-4-outside-1_1_180)"/>
<circle cx="15.5" cy="15.5" r="5.75" fill="black" stroke="black" stroke-width="1.5" stroke-linejoin="round"/>
<circle cx="15.5" cy="15.5" r="3.75" fill="black" stroke="#555555" stroke-width="1.5" stroke-linejoin="round"/>
</svg>
