<?xml version="1.0" encoding="utf-8"?>
<!-- Generator: Adobe Illustrator 25.0.1, SVG Export Plug-In . SVG Version: 6.00 Build 0)  -->
<svg version="1.1" id="Layer_1" xmlns="http://www.w3.org/2000/svg" xmlns:xlink="http://www.w3.org/1999/xlink" x="0px" y="0px"
	 viewBox="0 0 24 24" style="enable-background:new 0 0 24 24;" xml:space="preserve">
<style type="text/css">
	.st0{fill-rule:evenodd;clip-rule:evenodd;}
	.st1{fill:#FFFFFF;filter:url(#Adobe_OpacityMaskFilter);}
	.st2{mask:url(#path-4-outside-1_1_239_1_);}
	.st3{fill:#FFFFFF;stroke:#000000;stroke-width:1.5;stroke-linejoin:round;}
	.st4{fill:#FFFFFF;filter:url(#Adobe_OpacityMaskFilter_1_);}
	.st5{mask:url(#path-4-outside-1_1_239_2_);}
</style>
<path class="st0" d="M0,7.5C0,3.4,3.4,0,7.5,0c3.6,0,6.7,2.6,7.4,6c-0.1,0-0.2,0-0.4,0C9.8,6,6,9.8,6,14.5c0,0.1,0,0.2,0,0.4
	C2.6,14.2,0,11.1,0,7.5z"/>
<path d="M22.7,4.1c-0.2-0.1-0.5,0-0.7,0.2c0,0,0,0,0,0l-0.4,0.8c-0.7-2.3-2.7-4-5.2-4.1C16.2,1,16,1.2,16,1.5C16,1.8,16.2,2,16.5,2
	c2.1,0.1,3.8,1.6,4.3,3.6l-1.1-0.5c-0.2-0.1-0.5,0-0.7,0.2c-0.1,0.2,0,0.5,0.2,0.7l2,1c0,0,0,0,0,0C21.4,7,21.4,7,21.5,7
	c0.1,0,0.2,0,0.3-0.1l0,0c0.1,0,0.1-0.1,0.2-0.2c0,0,0,0,0,0l1-2C23.1,4.5,23,4.2,22.7,4.1C22.7,4.1,22.7,4.1,22.7,4.1z"/>
<defs>
	<filter id="Adobe_OpacityMaskFilter" filterUnits="userSpaceOnUse" x="15.7" y="0.7" width="7.6" height="6.6">
		<feColorMatrix  type="matrix" values="1 0 0 0 0  0 1 0 0 0  0 0 1 0 0  0 0 0 1 0"/>
	</filter>
</defs>
<mask maskUnits="userSpaceOnUse" x="15.7" y="0.7" width="7.6" height="6.6" id="path-4-outside-1_1_239_1_">
	<rect x="15" y="0" class="st1" width="9" height="8"/>
	<path d="M22.7,4.1c-0.2-0.1-0.5,0-0.7,0.2c0,0,0,0,0,0l-0.4,0.8c-0.7-2.3-2.7-4-5.2-4.1C16.2,1,16,1.2,16,1.5C16,1.8,16.2,2,16.5,2
		c2.1,0.1,3.8,1.6,4.3,3.6l-1.1-0.5c-0.2-0.1-0.5,0-0.7,0.2c-0.1,0.2,0,0.5,0.2,0.7l2,1c0,0,0,0,0,0C21.4,7,21.4,7,21.5,7
		c0.1,0,0.2,0,0.3-0.1l0,0c0.1,0,0.1-0.1,0.2-0.2c0,0,0,0,0,0l1-2C23.1,4.5,23,4.2,22.7,4.1C22.7,4.1,22.7,4.1,22.7,4.1z"/>
</mask>
<path class="st2" d="M22.7,4.1l0.1-0.3l0,0L22.7,4.1z M22.1,4.3l-0.3-0.1l0,0l0,0L22.1,4.3z M22.1,4.3l0.3,0.1l0,0l0,0L22.1,4.3z
	 M21.7,5.1l-0.3,0.1l0.2,0.7l0.3-0.7L21.7,5.1z M16.5,1l0-0.3h0V1z M16.5,2l0-0.3l0,0h0V2z M20.8,5.6l-0.1,0.3l0.6,0.3l-0.1-0.6
	L20.8,5.6z M19.7,5.1l0.1-0.3l0,0L19.7,5.1z M19.1,5.3l-0.3-0.1v0L19.1,5.3z M19.3,5.9l0.1-0.3l0,0L19.3,5.9z M21.3,6.9l-0.1,0.3
	l0.1,0h0.1V6.9z M21.3,6.9l0.1-0.3l-0.1,0h-0.1V6.9z M21.5,7l0,0.3l0,0L21.5,7z M21.8,6.9l0.2,0.3l0,0l0,0L21.8,6.9z M21.8,6.9
	l-0.2-0.3l0,0l0,0L21.8,6.9z M21.9,6.7l-0.3-0.2l0,0L21.9,6.7z M21.9,6.7l-0.3-0.1l0,0L21.9,6.7z M22.9,4.7l-0.3-0.1l0,0L22.9,4.7z
	 M22.7,4.1l-0.1,0.3l0,0L22.7,4.1z M22.9,3.8c-0.4-0.2-0.9,0-1.1,0.4l0.5,0.3c0-0.1,0.2-0.1,0.3-0.1L22.9,3.8z M21.8,4.2
	C21.8,4.2,21.8,4.1,21.8,4.2C21.8,4.1,21.8,4.1,21.8,4.2C21.8,4.1,21.8,4.1,21.8,4.2C21.8,4.1,21.8,4.1,21.8,4.2L21.8,4.2
	C21.8,4.1,21.8,4.1,21.8,4.2C21.8,4.1,21.8,4.1,21.8,4.2C21.8,4.1,21.8,4.1,21.8,4.2C21.8,4.1,21.8,4.1,21.8,4.2
	C21.8,4.1,21.8,4.1,21.8,4.2C21.8,4.1,21.8,4.2,21.8,4.2l0.6,0.2c0,0,0,0,0,0c0,0,0,0,0,0c0,0,0,0,0,0l0,0c0,0,0,0,0,0s0,0,0,0
	c0,0,0,0,0,0c0,0,0,0,0,0c0,0,0,0,0,0c0,0,0,0,0,0c0,0,0,0,0,0L21.8,4.2z M21.8,4.1l-0.4,0.8l0.5,0.3l0.4-0.8L21.8,4.1z M22,5
	c-0.7-2.5-2.9-4.2-5.4-4.3l0,0.6c2.3,0.1,4.3,1.6,4.9,3.8L22,5z M16.5,0.7c-0.4,0-0.8,0.4-0.8,0.8h0.6c0-0.1,0.1-0.2,0.2-0.2V0.7z
	 M15.7,1.5c0,0.4,0.4,0.8,0.8,0.8V1.7c-0.1,0-0.2-0.1-0.2-0.2H15.7z M16.5,2.3c1.9,0.1,3.6,1.5,4,3.3l0.6-0.1
	c-0.5-2.1-2.4-3.7-4.6-3.8L16.5,2.3z M20.9,5.3l-1.1-0.5l-0.3,0.5l1.1,0.5L20.9,5.3z M19.9,4.8c-0.4-0.2-0.9,0-1.1,0.4l0.5,0.3
	c0-0.1,0.2-0.1,0.3-0.1L19.9,4.8z M18.8,5.1c-0.2,0.4,0,0.9,0.4,1.1l0.3-0.5c-0.1,0-0.1-0.2-0.1-0.3L18.8,5.1z M19.1,6.2l2,1
	l0.3-0.5l-2-1L19.1,6.2z M21.3,7.2L21.3,7.2C21.3,7.2,21.3,7.2,21.3,7.2L21.3,7.2L21.3,7.2C21.3,7.2,21.3,7.2,21.3,7.2L21.3,7.2
	L21.3,7.2L21.3,7.2L21.3,7.2C21.3,7.2,21.3,7.2,21.3,7.2L21.3,7.2L21.3,7.2L21.3,7.2C21.3,7.2,21.3,7.2,21.3,7.2L21.3,7.2L21.3,7.2
	L21.3,7.2L21.3,7.2C21.3,7.2,21.3,7.2,21.3,7.2L21.3,7.2L21.3,7.2C21.3,7.2,21.3,7.2,21.3,7.2L21.3,7.2C21.3,7.2,21.3,7.2,21.3,7.2
	L21.3,7.2L21.3,7.2C21.3,7.2,21.3,7.2,21.3,7.2L21.3,7.2L21.3,7.2L21.3,7.2L21.3,7.2C21.3,7.2,21.3,7.2,21.3,7.2L21.3,7.2L21.3,7.2
	L21.3,7.2C21.3,7.2,21.3,7.2,21.3,7.2L21.3,7.2L21.3,7.2L21.3,7.2L21.3,7.2C21.3,7.2,21.3,7.2,21.3,7.2L21.3,7.2L21.3,7.2
	C21.3,7.2,21.3,7.2,21.3,7.2L21.3,7.2C21.3,7.2,21.3,7.2,21.3,7.2L21.3,7.2L21.3,7.2C21.3,7.2,21.3,7.2,21.3,7.2L21.3,7.2L21.3,7.2
	L21.3,7.2L21.3,7.2C21.3,7.2,21.3,7.2,21.3,7.2L21.3,7.2L21.3,7.2L21.3,7.2C21.3,7.2,21.3,7.2,21.3,7.2L21.3,7.2L21.3,7.2L21.3,7.2
	L21.3,7.2C21.3,7.2,21.3,7.2,21.3,7.2L21.3,7.2L21.3,7.2C21.3,7.2,21.3,7.2,21.3,7.2L21.3,7.2C21.3,7.2,21.3,7.2,21.3,7.2L21.3,7.2
	L21.3,7.2C21.3,7.2,21.3,7.2,21.3,7.2L21.3,7.2L21.3,7.2L21.3,7.2L21.3,7.2C21.3,7.2,21.3,7.2,21.3,7.2L21.3,7.2L21.3,7.2L21.3,7.2
	C21.3,7.2,21.3,7.2,21.3,7.2L21.3,7.2L21.3,7.2C21.3,7.2,21.3,7.2,21.3,7.2L21.3,7.2C21.3,7.2,21.3,7.2,21.3,7.2L21.3,7.2L21.3,7.2
	C21.3,7.2,21.3,7.2,21.3,7.2L21.3,7.2L21.3,7.2L21.3,7.2L21.3,7.2C21.3,7.2,21.3,7.2,21.3,7.2L21.3,7.2L21.3,7.2L21.3,7.2
	C21.3,7.2,21.3,7.2,21.3,7.2L21.3,7.2L21.3,7.2L21.3,7.2L21.3,7.2C21.3,7.2,21.3,7.2,21.3,7.2L21.3,7.2L21.3,7.2
	C21.3,7.2,21.3,7.2,21.3,7.2L21.3,7.2C21.3,7.2,21.3,7.2,21.3,7.2L21.3,7.2L21.3,7.2C21.3,7.2,21.3,7.2,21.3,7.2L21.3,7.2L21.3,7.2
	L21.3,7.2L21.3,7.2C21.3,7.2,21.3,7.2,21.3,7.2L21.3,7.2L21.3,7.2L21.3,7.2C21.3,7.2,21.3,7.2,21.3,7.2L21.3,7.2L21.3,7.2L21.3,7.2
	L21.3,7.2C21.3,7.2,21.3,7.2,21.3,7.2L21.3,7.2L21.3,7.2C21.3,7.2,21.3,7.2,21.3,7.2L21.3,7.2L21.3,7.2L21.3,7.2L21.3,7.2
	C21.3,7.2,21.3,7.2,21.3,7.2L21.3,7.2L21.3,7.2L21.3,7.2C21.3,7.2,21.3,7.2,21.3,7.2L21.3,7.2L21.3,7.2L21.3,7.2L21.3,7.2
	C21.3,7.2,21.3,7.2,21.3,7.2L21.3,7.2L21.3,7.2C21.3,7.2,21.3,7.2,21.3,7.2L21.3,7.2C21.3,7.2,21.3,7.2,21.3,7.2L21.3,7.2L21.3,7.2
	C21.3,7.2,21.3,7.2,21.3,7.2L21.3,7.2L21.3,7.2L21.3,7.2L21.3,7.2C21.3,7.2,21.3,7.2,21.3,7.2L21.3,7.2L21.3,7.2L21.3,7.2
	C21.3,7.2,21.3,7.2,21.3,7.2L21.3,7.2L21.3,7.2L21.3,7.2L21.3,7.2C21.3,7.2,21.3,7.2,21.3,7.2L21.3,7.2L21.3,7.2
	C21.3,7.2,21.3,7.2,21.3,7.2L21.3,7.2L21.3,7.2L21.3,7.2L21.3,7.2C21.3,7.2,21.3,7.2,21.3,7.2L21.3,7.2L21.3,7.2L21.3,7.2
	C21.3,7.2,21.3,7.2,21.3,7.2L21.3,7.2L21.3,7.2L21.3,7.2L21.3,7.2C21.3,7.2,21.3,7.2,21.3,7.2L21.3,7.2L21.3,7.2
	C21.3,7.2,21.3,7.2,21.3,7.2L21.3,7.2C21.3,7.2,21.3,7.2,21.3,7.2L21.3,7.2L21.3,7.2C21.3,7.2,21.3,7.2,21.3,7.2L21.3,7.2L21.3,7.2
	L21.3,7.2L21.3,7.2C21.3,7.2,21.3,7.2,21.3,7.2L21.3,7.2L21.3,7.2L21.3,7.2C21.3,7.2,21.3,7.2,21.3,7.2L21.3,7.2L21.3,7.2
	C21.3,7.2,21.3,7.2,21.3,7.2L21.3,7.2C21.3,7.2,21.3,7.2,21.3,7.2L21.3,7.2L21.3,7.2C21.3,7.2,21.3,7.2,21.3,7.2L21.3,7.2L21.3,7.2
	L21.3,7.2L21.3,7.2C21.3,7.2,21.3,7.2,21.3,7.2L21.3,7.2L21.3,7.2L21.3,7.2C21.3,7.2,21.3,7.2,21.3,7.2L21.3,7.2L21.3,7.2L21.3,7.2
	L21.3,7.2C21.3,7.2,21.3,7.2,21.3,7.2L21.3,7.2L21.3,7.2C21.3,7.2,21.3,7.2,21.3,7.2L21.3,7.2C21.3,7.2,21.3,7.2,21.3,7.2L21.3,7.2
	L21.3,7.2C21.3,7.2,21.3,7.2,21.3,7.2L21.3,7.2L21.3,7.2L21.3,7.2C21.3,7.2,21.3,7.2,21.3,7.2L21.3,7.2L21.3,7.2L21.3,7.2L21.3,7.2
	C21.3,7.2,21.3,7.2,21.3,7.2L21.3,7.2L21.3,7.2C21.3,7.2,21.3,7.2,21.3,7.2L21.3,7.2C21.3,7.2,21.3,7.2,21.3,7.2L21.3,7.2L21.3,7.2
	C21.3,7.2,21.3,7.2,21.3,7.2L21.3,7.2L21.3,7.2L21.3,7.2L21.3,7.2C21.3,7.2,21.3,7.2,21.3,7.2L21.3,7.2L21.3,7.2L21.3,7.2
	C21.3,7.2,21.3,7.2,21.3,7.2L21.3,7.2L21.3,7.2C21.3,7.2,21.3,7.2,21.3,7.2L21.3,7.2C21.3,7.2,21.3,7.2,21.3,7.2L21.3,7.2L21.3,7.2
	C21.3,7.2,21.3,7.2,21.3,7.2L21.3,7.2L21.3,7.2L21.3,7.2L21.3,7.2C21.3,7.2,21.3,7.2,21.3,7.2L21.3,7.2L21.3,7.2L21.3,7.2
	C21.3,7.2,21.3,7.2,21.3,7.2L21.3,7.2L21.3,7.2L21.3,7.2L21.3,7.2C21.3,7.2,21.3,7.2,21.3,7.2L21.3,7.2L21.3,7.2
	C21.3,7.2,21.3,7.2,21.3,7.2L21.3,7.2C21.3,7.2,21.3,7.2,21.3,7.2L21.3,7.2L21.3,7.2C21.3,7.2,21.3,7.2,21.3,7.2L21.3,7.2L21.3,7.2
	L21.3,7.2C21.3,7.2,21.3,7.2,21.3,7.2L21.3,7.2L21.3,7.2L21.3,7.2L21.3,7.2C21.3,7.2,21.3,7.2,21.3,7.2L21.3,7.2L21.3,7.2
	C21.3,7.2,21.3,7.2,21.3,7.2L21.3,7.2C21.3,7.2,21.3,7.2,21.3,7.2L21.3,7.2L21.3,7.2C21.3,7.2,21.3,7.2,21.3,7.2L21.3,7.2L21.3,7.2
	L21.3,7.2L21.3,7.2C21.3,7.2,21.3,7.2,21.3,7.2L21.3,7.2L21.3,7.2L21.3,7.2C21.3,7.2,21.3,7.2,21.3,7.2L21.3,7.2L21.3,7.2L21.3,7.2
	L21.3,7.2C21.3,7.2,21.3,7.2,21.3,7.2L21.3,7.2L21.3,7.2C21.3,7.2,21.3,7.2,21.3,7.2L21.3,7.2L21.3,7.2L21.3,7.2L21.3,7.2
	C21.3,7.2,21.3,7.2,21.3,7.2L21.3,7.2L21.3,7.2L21.3,7.2C21.3,7.2,21.3,7.2,21.3,7.2L21.3,7.2L21.3,7.2L21.3,7.2L21.3,7.2
	C21.3,7.2,21.3,7.2,21.3,7.2L21.3,7.2L21.3,7.2C21.3,7.2,21.3,7.2,21.3,7.2L21.3,7.2C21.3,7.2,21.3,7.2,21.3,7.2L21.3,7.2L21.3,7.2
	C21.3,7.2,21.3,7.2,21.3,7.2L21.3,7.2L21.3,7.2L21.3,7.2L21.3,7.2C21.3,7.2,21.3,7.2,21.3,7.2L21.3,7.2L21.3,7.2L21.3,7.2
	C21.3,7.2,21.3,7.2,21.3,7.2L21.3,7.2L21.3,7.2C21.3,7.2,21.3,7.2,21.3,7.2L21.3,7.2C21.3,7.2,21.3,7.2,21.3,7.2L21.3,7.2L21.3,7.2
	C21.3,7.2,21.3,7.2,21.3,7.2L21.3,7.2L21.3,7.2L21.3,7.2L21.3,7.2C21.3,7.2,21.3,7.2,21.3,7.2L21.3,7.2L21.3,7.2L21.3,7.2
	C21.3,7.2,21.3,7.2,21.3,7.2L21.3,7.2L21.3,7.2L21.3,7.2L21.3,7.2C21.3,7.2,21.3,7.2,21.3,7.2L21.3,7.2L21.3,7.2
	C21.3,7.2,21.3,7.2,21.3,7.2L21.3,7.2C21.3,7.2,21.3,7.2,21.3,7.2L21.3,7.2L21.3,7.2C21.3,7.2,21.3,7.2,21.3,7.2L21.3,7.2L21.3,7.2
	L21.3,7.2L21.3,7.2C21.3,7.2,21.3,7.2,21.3,7.2L21.3,7.2L21.3,7.2L21.3,7.2C21.3,7.2,21.3,7.2,21.3,7.2L21.3,7.2L21.3,7.2
	C21.3,7.2,21.3,7.2,21.3,7.2L21.3,7.2C21.3,7.2,21.3,7.2,21.3,7.2L21.3,7.2L21.3,7.2C21.3,7.2,21.3,7.2,21.3,7.2L21.3,7.2L21.3,7.2
	L21.3,7.2L21.3,7.2C21.3,7.2,21.3,7.2,21.3,7.2L21.3,7.2L21.3,7.2L21.3,7.2C21.3,7.2,21.3,7.2,21.3,7.2L21.3,7.2L21.3,7.2L21.3,7.2
	L21.3,7.2C21.3,7.2,21.3,7.2,21.3,7.2L21.3,7.2L21.3,7.2C21.3,7.2,21.3,7.2,21.3,7.2L21.3,7.2C21.3,7.2,21.3,7.2,21.3,7.2L21.3,7.2
	L21.3,7.2C21.3,7.2,21.3,7.2,21.3,7.2L21.3,7.2L21.3,7.2L21.3,7.2L21.3,7.2C21.3,7.2,21.3,7.2,21.3,7.2L21.3,7.2L21.3,7.2L21.3,7.2
	C21.3,7.2,21.3,7.2,21.3,7.2L21.3,7.2L21.3,7.2C21.3,7.2,21.3,7.2,21.3,7.2L21.3,7.2C21.3,7.2,21.3,7.2,21.3,7.2L21.3,7.2L21.3,7.2
	C21.3,7.2,21.3,7.2,21.3,7.2L21.3,7.2L21.3,7.2L21.3,7.2L21.3,7.2C21.3,7.2,21.3,7.2,21.3,7.2L21.3,7.2L21.3,7.2L21.3,7.2
	C21.3,7.2,21.3,7.2,21.3,7.2L21.3,7.2L21.3,7.2L21.3,7.2L21.3,7.2C21.3,7.2,21.3,7.2,21.3,7.2L21.3,7.2L21.3,7.2
	C21.3,7.2,21.3,7.2,21.3,7.2L21.3,7.2C21.3,7.2,21.3,7.2,21.3,7.2L21.3,7.2L21.3,7.2C21.3,7.2,21.3,7.2,21.3,7.2L21.3,7.2L21.3,7.2
	L21.3,7.2L21.3,7.2C21.3,7.2,21.3,7.2,21.3,7.2L21.3,7.2L21.3,7.2L21.3,7.2C21.3,7.2,21.3,7.2,21.3,7.2L21.3,7.2L21.3,7.2L21.3,7.2
	L21.3,7.2C21.3,7.2,21.3,7.2,21.3,7.2L21.3,7.2L21.3,7.2C21.3,7.2,21.3,7.2,21.3,7.2L21.3,7.2C21.3,7.2,21.3,7.2,21.3,7.2L21.3,7.2
	L21.3,7.2C21.3,7.2,21.3,7.2,21.3,7.2L21.3,7.2L21.3,7.2L21.3,7.2L21.3,7.2C21.3,7.2,21.3,7.2,21.3,7.2L21.3,7.2L21.3,7.2L21.3,7.2
	C21.3,7.2,21.3,7.2,21.3,7.2L21.3,7.2L21.3,7.2L21.3,7.2L21.3,7.2C21.3,7.2,21.3,7.2,21.3,7.2L21.3,7.2L21.3,7.2
	C21.3,7.2,21.3,7.2,21.3,7.2L21.3,7.2C21.3,7.2,21.3,7.2,21.3,7.2L21.3,7.2L21.3,7.2C21.3,7.2,21.3,7.2,21.3,7.2L21.3,7.2L21.3,7.2
	L21.3,7.2L21.3,7.2C21.3,7.2,21.3,7.2,21.3,7.2L21.3,7.2L21.3,7.2L21.3,7.2C21.3,7.2,21.3,7.2,21.3,7.2L21.3,7.2L21.3,7.2
	C21.3,7.2,21.3,7.2,21.3,7.2l0-0.6c0,0,0,0,0,0l0,0l0,0c0,0,0,0,0,0l0,0h0l0,0c0,0,0,0,0,0l0,0l0,0h0l0,0c0,0,0,0,0,0l0,0l0,0
	c0,0,0,0,0,0l0,0c0,0,0,0,0,0l0,0l0,0c0,0,0,0,0,0l0,0h0l0,0l0,0c0,0,0,0,0,0l0,0h0l0,0c0,0,0,0,0,0l0,0l0,0h0l0,0c0,0,0,0,0,0l0,0
	l0,0c0,0,0,0,0,0l0,0c0,0,0,0,0,0l0,0l0,0c0,0,0,0,0,0l0,0h0l0,0l0,0c0,0,0,0,0,0l0,0h0l0,0c0,0,0,0,0,0l0,0l0,0h0l0,0c0,0,0,0,0,0
	l0,0l0,0c0,0,0,0,0,0l0,0c0,0,0,0,0,0l0,0l0,0c0,0,0,0,0,0l0,0h0l0,0l0,0c0,0,0,0,0,0l0,0h0l0,0c0,0,0,0,0,0l0,0l0,0h0l0,0
	c0,0,0,0,0,0l0,0l0,0c0,0,0,0,0,0l0,0c0,0,0,0,0,0l0,0l0,0c0,0,0,0,0,0l0,0h0l0,0c0,0,0,0,0,0l0,0l0,0h0l0,0c0,0,0,0,0,0l0,0l0,0
	c0,0,0,0,0,0l0,0c0,0,0,0,0,0l0,0l0,0c0,0,0,0,0,0l0,0h0l0,0l0,0c0,0,0,0,0,0l0,0h0l0,0c0,0,0,0,0,0l0,0l0,0h0l0,0c0,0,0,0,0,0l0,0
	l0,0c0,0,0,0,0,0l0,0c0,0,0,0,0,0l0,0l0,0c0,0,0,0,0,0l0,0h0l0,0c0,0,0,0,0,0l0,0l0,0h0l0,0c0,0,0,0,0,0l0,0l0,0c0,0,0,0,0,0l0,0
	c0,0,0,0,0,0l0,0l0,0c0,0,0,0,0,0l0,0h0l0,0l0,0c0,0,0,0,0,0l0,0h0l0,0c0,0,0,0,0,0l0,0l0,0h0l0,0c0,0,0,0,0,0l0,0l0,0c0,0,0,0,0,0
	l0,0c0,0,0,0,0,0l0,0l0,0c0,0,0,0,0,0l0,0h0l0,0c0,0,0,0,0,0l0,0l0,0h0l0,0c0,0,0,0,0,0l0,0l0,0c0,0,0,0,0,0l0,0c0,0,0,0,0,0l0,0
	l0,0c0,0,0,0,0,0l0,0h0l0,0l0,0c0,0,0,0,0,0l0,0h0l0,0c0,0,0,0,0,0l0,0l0,0h0l0,0c0,0,0,0,0,0l0,0l0,0c0,0,0,0,0,0l0,0h0l0,0l0,0
	c0,0,0,0,0,0l0,0h0l0,0c0,0,0,0,0,0l0,0l0,0h0l0,0c0,0,0,0,0,0l0,0l0,0c0,0,0,0,0,0l0,0c0,0,0,0,0,0l0,0l0,0c0,0,0,0,0,0l0,0h0l0,0
	l0,0c0,0,0,0,0,0l0,0h0l0,0c0,0,0,0,0,0l0,0l0,0c0,0,0,0,0,0l0,0c0,0,0,0,0,0l0,0l0,0c0,0,0,0,0,0l0,0h0l0,0l0,0c0,0,0,0,0,0l0,0h0
	l0,0c0,0,0,0,0,0l0,0l0,0h0l0,0c0,0,0,0,0,0l0,0l0,0c0,0,0,0,0,0l0,0c0,0,0,0,0,0l0,0l0,0c0,0,0,0,0,0l0,0h0l0,0c0,0,0,0,0,0l0,0
	l0,0h0l0,0c0,0,0,0,0,0l0,0l0,0c0,0,0,0,0,0l0,0c0,0,0,0,0,0l0,0l0,0c0,0,0,0,0,0l0,0h0l0,0l0,0c0,0,0,0,0,0l0,0h0l0,0c0,0,0,0,0,0
	l0,0l0,0c0,0,0,0,0,0l0,0c0,0,0,0,0,0l0,0l0,0c0,0,0,0,0,0l0,0h0l0,0l0,0c0,0,0,0,0,0l0,0h0l0,0c0,0,0,0,0,0l0,0l0,0h0l0,0
	c0,0,0,0,0,0l0,0l0,0c0,0,0,0,0,0l0,0c0,0,0,0,0,0l0,0l0,0c0,0,0,0,0,0l0,0h0l0,0c0,0,0,0,0,0l0,0l0,0h0l0,0c0,0,0,0,0,0l0,0l0,0
	c0,0,0,0,0,0l0,0c0,0,0,0,0,0l0,0l0,0c0,0,0,0,0,0l0,0h0l0,0l0,0c0,0,0,0,0,0l0,0h0l0,0c0,0,0,0,0,0l0,0l0,0h0l0,0c0,0,0,0,0,0l0,0
	l0,0c0,0,0,0,0,0l0,0h0l0,0l0,0c0,0,0,0,0,0l0,0h0l0,0c0,0,0,0,0,0l0,0l0,0h0l0,0c0,0,0,0,0,0l0,0l0,0c0,0,0,0,0,0l0,0c0,0,0,0,0,0
	l0,0l0,0c0,0,0,0,0,0l0,0h0l0,0l0,0c0,0,0,0,0,0l0,0h0l0,0c0,0,0,0,0,0l0,0l0,0h0l0,0c0,0,0,0,0,0l0,0l0,0c0,0,0,0,0,0l0,0h0l0,0
	l0,0c0,0,0,0,0,0l0,0h0l0,0c0,0,0,0,0,0l0,0l0,0h0l0,0c0,0,0,0,0,0l0,0l0,0c0,0,0,0,0,0l0,0c0,0,0,0,0,0l0,0l0,0c0,0,0,0,0,0l0,0h0
	l0,0l0,0c0,0,0,0,0,0l0,0h0l0,0c0,0,0,0,0,0l0,0l0,0h0l0,0c0,0,0,0,0,0l0,0l0,0c0,0,0,0,0,0l0,0c0,0,0,0,0,0l0,0l0,0c0,0,0,0,0,0
	l0,0h0l0,0c0,0,0,0,0,0l0,0l0,0h0l0,0c0,0,0,0,0,0l0,0l0,0c0,0,0,0,0,0l0,0c0,0,0,0,0,0l0,0l0,0c0,0,0,0,0,0l0,0h0l0,0l0,0
	c0,0,0,0,0,0l0,0h0l0,0c0,0,0,0,0,0l0,0l0,0h0l0,0c0,0,0,0,0,0l0,0l0,0c0,0,0,0,0,0l0,0c0,0,0,0,0,0l0,0l0,0c0,0,0,0,0,0l0,0h0l0,0
	l0,0c0,0,0,0,0,0l0,0h0l0,0c0,0,0,0,0,0l0,0l0,0h0l0,0c0,0,0,0,0,0l0,0l0,0c0,0,0,0,0,0l0,0c0,0,0,0,0,0l0,0l0,0c0,0,0,0,0,0l0,0h0
	l0,0l0,0c0,0,0,0,0,0l0,0h0l0,0c0,0,0,0,0,0l0,0l0,0h0l0,0c0,0,0,0,0,0l0,0l0,0c0,0,0,0,0,0l0,0V7.2z M21.2,7.2
	c0.1,0.1,0.2,0.1,0.3,0.1l0-0.6c0,0-0.1,0-0.1,0L21.2,7.2z M21.5,7.3c0.1,0,0.3,0,0.4-0.1l-0.3-0.5c0,0-0.1,0-0.1,0L21.5,7.3z
	 M22,7.2L22,7.2l-0.4-0.5l0,0L22,7.2z M21.9,7.2C22,7.1,22.1,7,22.2,6.9l-0.5-0.3c0,0,0,0.1-0.1,0.1L21.9,7.2z M22.2,6.9
	C22.2,6.9,22.2,6.9,22.2,6.9C22.1,7,22.1,7,22.2,6.9C22.1,7,22.1,7,22.2,6.9C22.1,7,22.1,7,22.2,6.9C22.2,6.9,22.2,6.9,22.2,6.9
	l-0.5-0.3c0,0,0-0.1,0-0.1c0,0,0,0,0,0c0,0,0,0,0,0c0,0,0,0,0,0c0,0,0,0,0,0c0,0,0,0,0,0c0,0,0,0,0,0c0,0,0,0-0.1,0.1L22.2,6.9z
	 M22.2,6.9l1-2l-0.5-0.3l-1,2L22.2,6.9z M23.2,4.9c0.2-0.4,0-0.9-0.4-1.1l-0.3,0.5c0.1,0,0.1,0.2,0.1,0.3L23.2,4.9z M22.9,3.8
	C22.9,3.8,22.9,3.8,22.9,3.8C22.9,3.8,22.9,3.8,22.9,3.8l-0.3,0.5c0,0,0,0,0,0c0,0,0,0,0,0L22.9,3.8z"/>
<path d="M15.5,7C10.8,7,7,10.8,7,15.5c0,4.7,3.8,8.5,8.5,8.5c4.7,0,8.5-3.8,8.5-8.5C24,10.8,20.2,7,15.5,7z M15.5,22
	C11.9,22,9,19.1,9,15.5S11.9,9,15.5,9s6.5,2.9,6.5,6.5S19.1,22,15.5,22z"/>
<circle class="st3" cx="15.5" cy="15.5" r="3.8"/>
<path d="M1.3,19.7c0.2,0.1,0.5,0,0.7-0.2c0,0,0,0,0,0l0.4-0.8c0.7,2.3,2.7,4,5.2,4.1c0.3,0,0.5-0.2,0.5-0.5c0-0.3-0.2-0.5-0.5-0.5
	c-2.1-0.1-3.8-1.6-4.3-3.6l1.1,0.5c0.2,0.1,0.5,0,0.7-0.2c0.1-0.2,0-0.5-0.2-0.7l-2-1c0,0,0,0,0,0c-0.1,0-0.1-0.1-0.2-0.1
	c-0.1,0-0.2,0-0.3,0.1l0,0c-0.1,0-0.1,0.1-0.2,0.2c0,0,0,0,0,0l-1,2C1,19.2,1.1,19.5,1.3,19.7C1.3,19.7,1.3,19.7,1.3,19.7z"/>
<defs>
	<filter id="Adobe_OpacityMaskFilter_1_" filterUnits="userSpaceOnUse" x="0.8" y="16.4" width="7.6" height="6.6">
		<feColorMatrix  type="matrix" values="1 0 0 0 0  0 1 0 0 0  0 0 1 0 0  0 0 0 1 0"/>
	</filter>
</defs>
<mask maskUnits="userSpaceOnUse" x="0.8" y="16.4" width="7.6" height="6.6" id="path-4-outside-1_1_239_2_">
	<rect x="0.1" y="15.7" class="st4" width="9" height="8"/>
	<path d="M1.3,19.7c0.2,0.1,0.5,0,0.7-0.2c0,0,0,0,0,0l0.4-0.8c0.7,2.3,2.7,4,5.2,4.1c0.3,0,0.5-0.2,0.5-0.5c0-0.3-0.2-0.5-0.5-0.5
		c-2.1-0.1-3.8-1.6-4.3-3.6l1.1,0.5c0.2,0.1,0.5,0,0.7-0.2c0.1-0.2,0-0.5-0.2-0.7l-2-1c0,0,0,0,0,0c-0.1,0-0.1-0.1-0.2-0.1
		c-0.1,0-0.2,0-0.3,0.1l0,0c-0.1,0-0.1,0.1-0.2,0.2c0,0,0,0,0,0l-1,2C1,19.2,1.1,19.5,1.3,19.7C1.3,19.7,1.3,19.7,1.3,19.7z"/>
</mask>
<path class="st5" d="M1.3,19.7l-0.1,0.3l0,0L1.3,19.7z M2,19.4l0.3,0.1l0,0l0,0L2,19.4z M2,19.4l-0.3-0.1l0,0l0,0L2,19.4z M2.4,18.7
	l0.3-0.1l-0.2-0.7l-0.3,0.7L2.4,18.7z M7.6,22.7l0,0.3h0V22.7z M7.6,21.7l0,0.3l0,0h0V21.7z M3.3,18.1l0.1-0.3l-0.6-0.3L3,18.2
	L3.3,18.1z M4.3,18.7l-0.1,0.3l0,0L4.3,18.7z M5,18.4l0.3,0.1v0L5,18.4z M4.8,17.8L4.7,18l0,0L4.8,17.8z M2.8,16.8l0.1-0.3l-0.1,0
	H2.8V16.8z M2.8,16.8L2.6,17l0.1,0h0.1V16.8z M2.6,16.7l0-0.3l0,0L2.6,16.7z M2.3,16.8l-0.2-0.3l0,0l0,0L2.3,16.8z M2.3,16.8
	l0.2,0.3l0,0l0,0L2.3,16.8z M2.1,17l0.3,0.2l0,0L2.1,17z M2.1,17l0.3,0.1l0,0L2.1,17z M1.1,19l0.3,0.1l0,0L1.1,19z M1.3,19.7
	l0.1-0.3l0,0L1.3,19.7z M1.2,19.9c0.4,0.2,0.9,0,1.1-0.4l-0.5-0.3c0,0.1-0.2,0.1-0.3,0.1L1.2,19.9z M2.3,19.5
	C2.3,19.6,2.3,19.6,2.3,19.5C2.3,19.6,2.3,19.6,2.3,19.5C2.3,19.6,2.3,19.6,2.3,19.5C2.3,19.6,2.3,19.6,2.3,19.5L2.3,19.5
	C2.3,19.6,2.3,19.6,2.3,19.5C2.3,19.6,2.3,19.6,2.3,19.5C2.3,19.6,2.3,19.6,2.3,19.5C2.3,19.6,2.3,19.6,2.3,19.5
	C2.3,19.6,2.3,19.6,2.3,19.5C2.3,19.6,2.3,19.6,2.3,19.5l-0.6-0.2c0,0,0,0,0,0c0,0,0,0,0,0c0,0,0,0,0,0l0,0c0,0,0,0,0,0s0,0,0,0
	c0,0,0,0,0,0c0,0,0,0,0,0c0,0,0,0,0,0c0,0,0,0,0,0c0,0,0,0,0,0L2.3,19.5z M2.3,19.6l0.4-0.8l-0.5-0.3l-0.4,0.8L2.3,19.6z M2.1,18.8
	C2.8,21.2,5,22.9,7.6,23l0-0.6c-2.3-0.1-4.3-1.6-4.9-3.8L2.1,18.8z M7.6,23c0.4,0,0.8-0.4,0.8-0.8H7.8c0,0.1-0.1,0.2-0.2,0.2V23z
	 M8.4,22.2c0-0.4-0.4-0.8-0.8-0.8V22c0.1,0,0.2,0.1,0.2,0.2H8.4z M7.6,21.4c-1.9-0.1-3.6-1.5-4-3.3L3,18.2c0.5,2.1,2.4,3.7,4.6,3.8
	L7.6,21.4z M3.2,18.4l1.1,0.5l0.3-0.5l-1.1-0.5L3.2,18.4z M4.2,18.9c0.4,0.2,0.9,0,1.1-0.4l-0.5-0.3c0,0.1-0.2,0.1-0.3,0.1L4.2,18.9
	z M5.3,18.6c0.2-0.4,0-0.9-0.4-1.1L4.7,18c0.1,0,0.1,0.2,0.1,0.3L5.3,18.6z M4.9,17.5l-2-1L2.7,17l2,1L4.9,17.5z M2.8,16.5L2.8,16.5
	C2.8,16.5,2.8,16.5,2.8,16.5L2.8,16.5L2.8,16.5C2.8,16.5,2.8,16.5,2.8,16.5L2.8,16.5L2.8,16.5L2.8,16.5L2.8,16.5
	C2.8,16.5,2.8,16.5,2.8,16.5L2.8,16.5L2.8,16.5L2.8,16.5C2.8,16.5,2.8,16.5,2.8,16.5L2.8,16.5L2.8,16.5L2.8,16.5L2.8,16.5
	C2.8,16.5,2.8,16.5,2.8,16.5L2.8,16.5L2.8,16.5C2.8,16.5,2.8,16.5,2.8,16.5L2.8,16.5C2.8,16.5,2.8,16.5,2.8,16.5L2.8,16.5L2.8,16.5
	C2.8,16.5,2.8,16.5,2.8,16.5L2.8,16.5L2.8,16.5L2.8,16.5L2.8,16.5C2.8,16.5,2.8,16.5,2.8,16.5L2.8,16.5L2.8,16.5L2.8,16.5
	C2.8,16.5,2.8,16.5,2.8,16.5L2.8,16.5L2.8,16.5L2.8,16.5L2.8,16.5C2.8,16.5,2.8,16.5,2.8,16.5L2.8,16.5L2.8,16.5
	C2.8,16.5,2.8,16.5,2.8,16.5L2.8,16.5C2.8,16.5,2.8,16.5,2.8,16.5L2.8,16.5L2.8,16.5C2.8,16.5,2.8,16.5,2.8,16.5L2.8,16.5L2.8,16.5
	L2.8,16.5L2.8,16.5C2.8,16.5,2.8,16.5,2.8,16.5L2.8,16.5L2.8,16.5L2.8,16.5C2.8,16.5,2.8,16.5,2.8,16.5L2.8,16.5L2.8,16.5L2.8,16.5
	L2.8,16.5C2.8,16.5,2.8,16.5,2.8,16.5L2.8,16.5L2.8,16.5C2.8,16.5,2.8,16.5,2.8,16.5L2.8,16.5C2.8,16.5,2.8,16.5,2.8,16.5L2.8,16.5
	L2.8,16.5C2.8,16.5,2.8,16.5,2.8,16.5L2.8,16.5L2.8,16.5L2.8,16.5L2.8,16.5C2.8,16.5,2.8,16.5,2.8,16.5L2.8,16.5L2.8,16.5L2.8,16.5
	C2.8,16.5,2.8,16.5,2.8,16.5L2.8,16.5L2.8,16.5C2.8,16.5,2.8,16.5,2.8,16.5L2.8,16.5C2.8,16.5,2.8,16.5,2.8,16.5L2.8,16.5L2.8,16.5
	C2.8,16.5,2.8,16.5,2.8,16.5L2.8,16.5L2.8,16.5L2.8,16.5L2.8,16.5C2.8,16.5,2.8,16.5,2.8,16.5L2.8,16.5L2.8,16.5L2.8,16.5
	C2.8,16.5,2.8,16.5,2.8,16.5L2.8,16.5L2.8,16.5L2.8,16.5L2.8,16.5C2.8,16.5,2.8,16.5,2.8,16.5L2.8,16.5L2.8,16.5
	C2.8,16.5,2.8,16.5,2.8,16.5L2.8,16.5C2.8,16.5,2.8,16.5,2.8,16.5L2.8,16.5L2.8,16.5C2.8,16.5,2.8,16.5,2.8,16.5L2.8,16.5L2.8,16.5
	L2.8,16.5L2.8,16.5C2.8,16.5,2.8,16.5,2.8,16.5L2.8,16.5L2.8,16.5L2.8,16.5C2.8,16.5,2.8,16.5,2.8,16.5L2.8,16.5L2.8,16.5L2.8,16.5
	L2.8,16.5C2.8,16.5,2.8,16.5,2.8,16.5L2.8,16.5L2.8,16.5C2.8,16.5,2.8,16.5,2.8,16.5L2.8,16.5L2.8,16.5L2.8,16.5L2.8,16.5
	C2.8,16.5,2.8,16.5,2.8,16.5L2.8,16.5L2.8,16.5L2.8,16.5C2.8,16.5,2.8,16.5,2.8,16.5L2.8,16.5L2.8,16.5L2.8,16.5L2.8,16.5
	C2.8,16.5,2.8,16.5,2.8,16.5L2.8,16.5L2.8,16.5C2.8,16.5,2.8,16.5,2.8,16.5L2.8,16.5C2.8,16.5,2.8,16.5,2.8,16.5L2.8,16.5L2.8,16.5
	C2.8,16.5,2.8,16.5,2.8,16.5L2.8,16.5L2.8,16.5L2.8,16.5L2.8,16.5C2.8,16.5,2.8,16.5,2.8,16.5L2.8,16.5L2.8,16.5L2.8,16.5
	C2.8,16.5,2.8,16.5,2.8,16.5L2.8,16.5L2.8,16.5L2.8,16.5L2.8,16.5C2.8,16.5,2.8,16.5,2.8,16.5L2.8,16.5L2.8,16.5
	C2.8,16.5,2.8,16.5,2.8,16.5L2.8,16.5L2.8,16.5L2.8,16.5L2.8,16.5C2.8,16.5,2.8,16.5,2.8,16.5L2.8,16.5L2.8,16.5L2.8,16.5
	C2.8,16.5,2.8,16.5,2.8,16.5L2.8,16.5L2.8,16.5L2.8,16.5L2.8,16.5C2.8,16.5,2.8,16.5,2.8,16.5L2.8,16.5L2.8,16.5
	C2.8,16.5,2.8,16.5,2.8,16.5L2.8,16.5C2.8,16.5,2.8,16.5,2.8,16.5L2.8,16.5L2.8,16.5C2.8,16.5,2.8,16.5,2.8,16.5L2.8,16.5L2.8,16.5
	L2.8,16.5L2.8,16.5C2.8,16.5,2.8,16.5,2.8,16.5L2.8,16.5L2.8,16.5L2.8,16.5C2.8,16.5,2.8,16.5,2.8,16.5L2.8,16.5L2.8,16.5
	C2.8,16.5,2.8,16.5,2.8,16.5L2.8,16.5C2.8,16.5,2.8,16.5,2.8,16.5L2.8,16.5L2.8,16.5C2.8,16.5,2.8,16.5,2.8,16.5L2.8,16.5L2.8,16.5
	L2.8,16.5L2.8,16.5C2.8,16.5,2.8,16.5,2.8,16.5L2.8,16.5L2.8,16.5L2.8,16.5C2.8,16.5,2.8,16.5,2.8,16.5L2.8,16.5L2.8,16.5L2.8,16.5
	L2.8,16.5C2.8,16.5,2.8,16.5,2.8,16.5L2.8,16.5L2.8,16.5C2.8,16.5,2.8,16.5,2.8,16.5L2.8,16.5C2.8,16.5,2.8,16.5,2.8,16.5L2.8,16.5
	L2.8,16.5C2.8,16.5,2.8,16.5,2.8,16.5L2.8,16.5L2.8,16.5L2.8,16.5C2.8,16.5,2.8,16.5,2.8,16.5L2.8,16.5L2.8,16.5L2.8,16.5L2.8,16.5
	C2.8,16.5,2.8,16.5,2.8,16.5L2.8,16.5L2.8,16.5C2.8,16.5,2.8,16.5,2.8,16.5L2.8,16.5C2.8,16.5,2.8,16.5,2.8,16.5L2.8,16.5L2.8,16.5
	C2.8,16.5,2.8,16.5,2.8,16.5L2.8,16.5L2.8,16.5L2.8,16.5L2.8,16.5C2.8,16.5,2.8,16.5,2.8,16.5L2.8,16.5L2.8,16.5L2.8,16.5
	C2.8,16.5,2.8,16.5,2.8,16.5L2.8,16.5L2.8,16.5C2.8,16.5,2.8,16.5,2.8,16.5L2.8,16.5C2.8,16.5,2.8,16.5,2.8,16.5L2.8,16.5L2.8,16.5
	C2.8,16.5,2.8,16.5,2.8,16.5L2.8,16.5L2.8,16.5L2.8,16.5L2.8,16.5C2.8,16.5,2.8,16.5,2.8,16.5L2.8,16.5L2.8,16.5L2.8,16.5
	C2.8,16.5,2.8,16.5,2.8,16.5L2.8,16.5L2.8,16.5L2.8,16.5L2.8,16.5C2.8,16.5,2.8,16.5,2.8,16.5L2.8,16.5L2.8,16.5
	C2.8,16.5,2.8,16.5,2.8,16.5L2.8,16.5C2.8,16.5,2.8,16.5,2.8,16.5L2.8,16.5L2.8,16.5C2.8,16.5,2.8,16.5,2.8,16.5L2.8,16.5L2.8,16.5
	L2.8,16.5C2.8,16.5,2.8,16.5,2.8,16.5L2.8,16.5L2.8,16.5L2.8,16.5L2.8,16.5C2.8,16.5,2.8,16.5,2.8,16.5L2.8,16.5L2.8,16.5
	C2.8,16.5,2.8,16.5,2.8,16.5L2.8,16.5C2.8,16.5,2.8,16.5,2.8,16.5L2.8,16.5L2.8,16.5C2.8,16.5,2.8,16.5,2.8,16.5L2.8,16.5L2.8,16.5
	L2.8,16.5L2.8,16.5C2.8,16.5,2.8,16.5,2.8,16.5L2.8,16.5L2.8,16.5L2.8,16.5C2.8,16.5,2.8,16.5,2.8,16.5L2.8,16.5L2.8,16.5L2.8,16.5
	L2.8,16.5C2.8,16.5,2.8,16.5,2.8,16.5L2.8,16.5L2.8,16.5C2.8,16.5,2.8,16.5,2.8,16.5L2.8,16.5L2.8,16.5L2.8,16.5L2.8,16.5
	C2.8,16.5,2.8,16.5,2.8,16.5L2.8,16.5L2.8,16.5L2.8,16.5C2.8,16.5,2.8,16.5,2.8,16.5L2.8,16.5L2.8,16.5L2.8,16.5L2.8,16.5
	C2.8,16.5,2.8,16.5,2.8,16.5L2.8,16.5L2.8,16.5C2.8,16.5,2.8,16.5,2.8,16.5L2.8,16.5C2.8,16.5,2.8,16.5,2.8,16.5L2.8,16.5L2.8,16.5
	C2.8,16.5,2.8,16.5,2.8,16.5L2.8,16.5L2.8,16.5L2.8,16.5L2.8,16.5C2.8,16.5,2.8,16.5,2.8,16.5L2.8,16.5L2.8,16.5L2.8,16.5
	C2.8,16.5,2.8,16.5,2.8,16.5L2.8,16.5L2.8,16.5C2.8,16.5,2.8,16.5,2.8,16.5L2.8,16.5C2.8,16.5,2.8,16.5,2.8,16.5L2.8,16.5L2.8,16.5
	C2.8,16.5,2.8,16.5,2.8,16.5L2.8,16.5L2.8,16.5L2.8,16.5L2.8,16.5C2.8,16.5,2.8,16.5,2.8,16.5L2.8,16.5L2.8,16.5L2.8,16.5
	C2.8,16.5,2.8,16.5,2.8,16.5L2.8,16.5L2.8,16.5L2.8,16.5L2.8,16.5C2.8,16.5,2.8,16.5,2.8,16.5L2.8,16.5L2.8,16.5
	C2.8,16.5,2.8,16.5,2.8,16.5L2.8,16.5C2.8,16.5,2.8,16.5,2.8,16.5L2.8,16.5L2.8,16.5C2.8,16.5,2.8,16.5,2.8,16.5L2.8,16.5L2.8,16.5
	L2.8,16.5L2.8,16.5C2.8,16.5,2.8,16.5,2.8,16.5L2.8,16.5L2.8,16.5L2.8,16.5C2.8,16.5,2.8,16.5,2.8,16.5L2.8,16.5L2.8,16.5
	C2.8,16.5,2.8,16.5,2.8,16.5L2.8,16.5C2.8,16.5,2.8,16.5,2.8,16.5L2.8,16.5L2.8,16.5C2.8,16.5,2.8,16.5,2.8,16.5L2.8,16.5L2.8,16.5
	L2.8,16.5L2.8,16.5C2.8,16.5,2.8,16.5,2.8,16.5L2.8,16.5L2.8,16.5L2.8,16.5C2.8,16.5,2.8,16.5,2.8,16.5L2.8,16.5L2.8,16.5L2.8,16.5
	L2.8,16.5C2.8,16.5,2.8,16.5,2.8,16.5L2.8,16.5L2.8,16.5C2.8,16.5,2.8,16.5,2.8,16.5L2.8,16.5C2.8,16.5,2.8,16.5,2.8,16.5L2.8,16.5
	L2.8,16.5C2.8,16.5,2.8,16.5,2.8,16.5L2.8,16.5L2.8,16.5L2.8,16.5L2.8,16.5C2.8,16.5,2.8,16.5,2.8,16.5L2.8,16.5L2.8,16.5L2.8,16.5
	C2.8,16.5,2.8,16.5,2.8,16.5L2.8,16.5L2.8,16.5C2.8,16.5,2.8,16.5,2.8,16.5L2.8,16.5C2.8,16.5,2.8,16.5,2.8,16.5L2.8,16.5L2.8,16.5
	C2.8,16.5,2.8,16.5,2.8,16.5L2.8,16.5L2.8,16.5L2.8,16.5L2.8,16.5C2.8,16.5,2.8,16.5,2.8,16.5L2.8,16.5L2.8,16.5L2.8,16.5
	C2.8,16.5,2.8,16.5,2.8,16.5L2.8,16.5L2.8,16.5L2.8,16.5L2.8,16.5C2.8,16.5,2.8,16.5,2.8,16.5L2.8,16.5L2.8,16.5
	C2.8,16.5,2.8,16.5,2.8,16.5L2.8,16.5C2.8,16.5,2.8,16.5,2.8,16.5L2.8,16.5L2.8,16.5C2.8,16.5,2.8,16.5,2.8,16.5L2.8,16.5L2.8,16.5
	L2.8,16.5L2.8,16.5C2.8,16.5,2.8,16.5,2.8,16.5L2.8,16.5L2.8,16.5L2.8,16.5C2.8,16.5,2.8,16.5,2.8,16.5L2.8,16.5L2.8,16.5L2.8,16.5
	L2.8,16.5C2.8,16.5,2.8,16.5,2.8,16.5L2.8,16.5L2.8,16.5C2.8,16.5,2.8,16.5,2.8,16.5L2.8,16.5C2.8,16.5,2.8,16.5,2.8,16.5L2.8,16.5
	L2.8,16.5C2.8,16.5,2.8,16.5,2.8,16.5L2.8,16.5L2.8,16.5L2.8,16.5L2.8,16.5C2.8,16.5,2.8,16.5,2.8,16.5L2.8,16.5L2.8,16.5L2.8,16.5
	C2.8,16.5,2.8,16.5,2.8,16.5L2.8,16.5L2.8,16.5L2.8,16.5L2.8,16.5C2.8,16.5,2.8,16.5,2.8,16.5L2.8,16.5L2.8,16.5
	C2.8,16.5,2.8,16.5,2.8,16.5L2.8,16.5C2.8,16.5,2.8,16.5,2.8,16.5L2.8,16.5L2.8,16.5C2.8,16.5,2.8,16.5,2.8,16.5L2.8,16.5L2.8,16.5
	L2.8,16.5L2.8,16.5C2.8,16.5,2.8,16.5,2.8,16.5L2.8,16.5L2.8,16.5L2.8,16.5C2.8,16.5,2.8,16.5,2.8,16.5L2.8,16.5L2.8,16.5
	C2.8,16.5,2.8,16.5,2.8,16.5l0,0.6c0,0,0,0,0,0l0,0l0,0c0,0,0,0,0,0l0,0h0l0,0c0,0,0,0,0,0l0,0l0,0h0l0,0c0,0,0,0,0,0l0,0l0,0
	c0,0,0,0,0,0l0,0c0,0,0,0,0,0l0,0l0,0c0,0,0,0,0,0l0,0h0l0,0l0,0c0,0,0,0,0,0l0,0h0l0,0c0,0,0,0,0,0l0,0l0,0h0l0,0c0,0,0,0,0,0l0,0
	l0,0c0,0,0,0,0,0l0,0c0,0,0,0,0,0l0,0l0,0c0,0,0,0,0,0l0,0h0l0,0l0,0c0,0,0,0,0,0l0,0h0l0,0c0,0,0,0,0,0l0,0l0,0h0l0,0c0,0,0,0,0,0
	l0,0l0,0c0,0,0,0,0,0l0,0c0,0,0,0,0,0l0,0l0,0c0,0,0,0,0,0l0,0h0l0,0l0,0c0,0,0,0,0,0l0,0h0l0,0c0,0,0,0,0,0l0,0l0,0h0l0,0
	c0,0,0,0,0,0l0,0l0,0c0,0,0,0,0,0l0,0c0,0,0,0,0,0l0,0l0,0c0,0,0,0,0,0l0,0h0l0,0c0,0,0,0,0,0l0,0l0,0h0l0,0c0,0,0,0,0,0l0,0l0,0
	c0,0,0,0,0,0l0,0c0,0,0,0,0,0l0,0l0,0c0,0,0,0,0,0l0,0h0l0,0l0,0c0,0,0,0,0,0l0,0h0l0,0c0,0,0,0,0,0l0,0l0,0h0l0,0c0,0,0,0,0,0l0,0
	l0,0c0,0,0,0,0,0l0,0c0,0,0,0,0,0l0,0l0,0c0,0,0,0,0,0l0,0h0l0,0c0,0,0,0,0,0l0,0l0,0h0l0,0c0,0,0,0,0,0l0,0l0,0c0,0,0,0,0,0l0,0
	c0,0,0,0,0,0l0,0l0,0c0,0,0,0,0,0l0,0h0l0,0l0,0c0,0,0,0,0,0l0,0h0l0,0c0,0,0,0,0,0l0,0l0,0h0l0,0c0,0,0,0,0,0l0,0l0,0c0,0,0,0,0,0
	l0,0c0,0,0,0,0,0l0,0l0,0c0,0,0,0,0,0l0,0h0l0,0c0,0,0,0,0,0l0,0l0,0h0l0,0c0,0,0,0,0,0l0,0l0,0c0,0,0,0,0,0l0,0c0,0,0,0,0,0l0,0
	l0,0c0,0,0,0,0,0l0,0h0l0,0l0,0c0,0,0,0,0,0l0,0h0l0,0c0,0,0,0,0,0l0,0l0,0h0l0,0c0,0,0,0,0,0l0,0l0,0c0,0,0,0,0,0l0,0h0l0,0l0,0
	c0,0,0,0,0,0l0,0h0l0,0c0,0,0,0,0,0l0,0l0,0h0l0,0c0,0,0,0,0,0l0,0l0,0c0,0,0,0,0,0l0,0c0,0,0,0,0,0l0,0l0,0c0,0,0,0,0,0l0,0h0l0,0
	l0,0c0,0,0,0,0,0l0,0h0l0,0c0,0,0,0,0,0l0,0l0,0c0,0,0,0,0,0l0,0c0,0,0,0,0,0l0,0l0,0c0,0,0,0,0,0l0,0h0l0,0l0,0c0,0,0,0,0,0l0,0h0
	l0,0c0,0,0,0,0,0l0,0l0,0h0l0,0c0,0,0,0,0,0l0,0l0,0c0,0,0,0,0,0l0,0c0,0,0,0,0,0l0,0l0,0c0,0,0,0,0,0l0,0h0l0,0c0,0,0,0,0,0l0,0
	l0,0h0l0,0c0,0,0,0,0,0l0,0l0,0c0,0,0,0,0,0l0,0c0,0,0,0,0,0l0,0l0,0c0,0,0,0,0,0l0,0h0l0,0l0,0c0,0,0,0,0,0l0,0h0l0,0c0,0,0,0,0,0
	l0,0l0,0c0,0,0,0,0,0l0,0c0,0,0,0,0,0l0,0l0,0c0,0,0,0,0,0l0,0h0l0,0l0,0c0,0,0,0,0,0l0,0h0l0,0c0,0,0,0,0,0l0,0l0,0h0l0,0
	c0,0,0,0,0,0l0,0l0,0c0,0,0,0,0,0l0,0c0,0,0,0,0,0l0,0l0,0c0,0,0,0,0,0l0,0h0l0,0c0,0,0,0,0,0l0,0l0,0h0l0,0c0,0,0,0,0,0l0,0l0,0
	c0,0,0,0,0,0l0,0c0,0,0,0,0,0l0,0l0,0c0,0,0,0,0,0l0,0h0l0,0l0,0c0,0,0,0,0,0l0,0h0l0,0c0,0,0,0,0,0l0,0l0,0h0l0,0c0,0,0,0,0,0l0,0
	l0,0c0,0,0,0,0,0l0,0h0l0,0l0,0c0,0,0,0,0,0l0,0h0l0,0c0,0,0,0,0,0l0,0l0,0h0l0,0c0,0,0,0,0,0l0,0l0,0c0,0,0,0,0,0l0,0c0,0,0,0,0,0
	l0,0l0,0c0,0,0,0,0,0l0,0h0l0,0l0,0c0,0,0,0,0,0l0,0h0l0,0c0,0,0,0,0,0l0,0l0,0h0l0,0c0,0,0,0,0,0l0,0l0,0c0,0,0,0,0,0l0,0h0l0,0
	l0,0c0,0,0,0,0,0l0,0h0l0,0c0,0,0,0,0,0l0,0l0,0h0l0,0c0,0,0,0,0,0l0,0l0,0c0,0,0,0,0,0l0,0c0,0,0,0,0,0l0,0l0,0c0,0,0,0,0,0l0,0h0
	l0,0l0,0c0,0,0,0,0,0l0,0h0l0,0c0,0,0,0,0,0l0,0l0,0h0l0,0c0,0,0,0,0,0l0,0l0,0c0,0,0,0,0,0l0,0c0,0,0,0,0,0l0,0l0,0c0,0,0,0,0,0
	l0,0h0l0,0c0,0,0,0,0,0l0,0l0,0h0l0,0c0,0,0,0,0,0l0,0l0,0c0,0,0,0,0,0l0,0c0,0,0,0,0,0l0,0l0,0c0,0,0,0,0,0l0,0h0l0,0l0,0
	c0,0,0,0,0,0l0,0h0l0,0c0,0,0,0,0,0l0,0l0,0h0l0,0c0,0,0,0,0,0l0,0l0,0c0,0,0,0,0,0l0,0c0,0,0,0,0,0l0,0l0,0c0,0,0,0,0,0l0,0h0l0,0
	l0,0c0,0,0,0,0,0l0,0h0l0,0c0,0,0,0,0,0l0,0l0,0h0l0,0c0,0,0,0,0,0l0,0l0,0c0,0,0,0,0,0l0,0c0,0,0,0,0,0l0,0l0,0c0,0,0,0,0,0l0,0h0
	l0,0l0,0c0,0,0,0,0,0l0,0h0l0,0c0,0,0,0,0,0l0,0l0,0h0l0,0c0,0,0,0,0,0l0,0l0,0c0,0,0,0,0,0l0,0V16.5z M2.9,16.5
	c-0.1-0.1-0.2-0.1-0.3-0.1l0,0.6c0,0,0.1,0,0.1,0L2.9,16.5z M2.6,16.4c-0.1,0-0.3,0-0.4,0.1L2.5,17c0,0,0.1,0,0.1,0L2.6,16.4z
	 M2.1,16.6L2.1,16.6L2.5,17l0,0L2.1,16.6z M2.1,16.6c-0.1,0.1-0.2,0.2-0.3,0.3l0.5,0.3c0,0,0-0.1,0.1-0.1L2.1,16.6z M1.9,16.8
	C1.9,16.8,1.9,16.8,1.9,16.8C1.9,16.8,1.9,16.8,1.9,16.8C1.9,16.8,1.9,16.8,1.9,16.8C1.9,16.8,1.9,16.8,1.9,16.8
	C1.9,16.8,1.9,16.8,1.9,16.8l0.5,0.3c0,0,0,0.1,0,0.1c0,0,0,0,0,0c0,0,0,0,0,0c0,0,0,0,0,0c0,0,0,0,0,0c0,0,0,0,0,0c0,0,0,0,0,0
	c0,0,0,0,0.1-0.1L1.9,16.8z M1.9,16.9l-1,2l0.5,0.3l1-2L1.9,16.9z M0.9,18.9c-0.2,0.4,0,0.9,0.4,1.1l0.3-0.5c-0.1,0-0.1-0.2-0.1-0.3
	L0.9,18.9z M1.2,19.9C1.2,19.9,1.2,19.9,1.2,19.9C1.2,19.9,1.2,19.9,1.2,19.9l0.3-0.5c0,0,0,0,0,0c0,0,0,0,0,0L1.2,19.9z"/>
</svg>
